<svg width="28" height="28" viewBox="0 0 28 28" fill="none" xmlns="http://www.w3.org/2000/svg">
<g clip-path="url(#clip0_557_995)">
<mask id="mask0_557_995" style="mask-type:luminance" maskUnits="userSpaceOnUse" x="0" y="0" width="28" height="28">
<path d="M0 0H28V28H0V0Z" fill="white"/>
<path d="M15.8721 20.691C15.8721 21.2622 15.6452 21.81 15.2413 22.214C14.8374 22.6179 14.2895 22.8448 13.7183 22.8448C13.1471 22.8448 12.5992 22.6179 12.1953 22.214C11.7914 21.81 11.5645 21.2622 11.5645 20.691C11.5645 20.1197 11.7914 19.5719 12.1953 19.168C12.5992 18.764 13.1471 18.5371 13.7183 18.5371C14.2895 18.5371 14.8374 18.764 15.2413 19.168C15.6452 19.5719 15.8721 20.1197 15.8721 20.691Z" fill="black"/>
<path fill-rule="evenodd" clip-rule="evenodd" d="M13.6873 8.36233C12.9657 8.36233 12.3465 8.57772 11.9104 8.88572C11.4904 9.18295 11.2825 9.52864 11.2222 9.82695C11.1331 10.2257 10.8913 10.5736 10.5486 10.7961C10.2059 11.0186 9.78962 11.0979 9.38912 11.017C8.98863 10.9361 8.63579 10.7015 8.4063 10.3634C8.17682 10.0254 8.08896 9.61087 8.1616 9.2088C8.40606 7.99618 9.15775 7.00649 10.1097 6.33341C11.1005 5.63341 12.3562 5.23926 13.6873 5.23926C16.441 5.23926 19.2959 7.0808 19.2959 10.038C19.2959 11.7503 18.2782 13.1353 16.9601 13.943C16.6067 14.1592 16.182 14.2262 15.7793 14.1292C15.3766 14.0323 15.0289 13.7793 14.8127 13.426C14.5965 13.0727 14.5295 12.648 14.6264 12.2453C14.7233 11.8426 14.9763 11.4949 15.3296 11.2786C15.9434 10.9028 16.1728 10.4236 16.1728 10.038C16.1728 9.41987 15.4028 8.36233 13.6873 8.36233Z" fill="black"/>
<path fill-rule="evenodd" clip-rule="evenodd" d="M13.6875 12.5244C14.5491 12.5244 15.2491 13.2223 15.2491 14.086V15.7035C15.2491 16.1176 15.0845 16.5148 14.7917 16.8077C14.4988 17.1005 14.1017 17.265 13.6875 17.265C13.2734 17.265 12.8762 17.1005 12.5833 16.8077C12.2905 16.5148 12.126 16.1176 12.126 15.7035V14.086C12.126 13.2244 12.8249 12.5244 13.6875 12.5244Z" fill="black"/>
<path fill-rule="evenodd" clip-rule="evenodd" d="M17.488 11.8098C17.5935 11.9858 17.6632 12.1809 17.6933 12.3839C17.7233 12.5869 17.713 12.7939 17.663 12.9929C17.613 13.1919 17.5242 13.3792 17.4018 13.5439C17.2794 13.7086 17.1257 13.8476 16.9495 13.9528L14.4898 15.425C14.3139 15.5304 14.119 15.6 13.9161 15.63C13.7132 15.6601 13.5065 15.6498 13.3075 15.5999C13.1086 15.55 12.9215 15.4614 12.7569 15.3392C12.5922 15.217 12.4532 15.0635 12.3478 14.8876C12.2425 14.7117 12.1728 14.5167 12.1428 14.3139C12.1128 14.111 12.123 13.9042 12.1729 13.7053C12.2228 13.5064 12.3114 13.3193 12.4336 13.1546C12.5558 12.9899 12.7093 12.851 12.8852 12.7456L15.346 11.2724C15.522 11.1671 15.717 11.0974 15.9199 11.0675C16.1228 11.0376 16.3296 11.0479 16.5285 11.0979C16.7274 11.1479 16.9146 11.2366 17.0792 11.3589C17.2438 11.4813 17.3827 11.6348 17.488 11.8108" fill="black"/>
</mask>
<g mask="url(#mask0_557_995)">
<path d="M14.0003 26.8332C21.088 26.8332 26.8337 21.0875 26.8337 13.9998C26.8337 6.91218 21.088 1.1665 14.0003 1.1665C6.91267 1.1665 1.16699 6.91218 1.16699 13.9998C1.16699 21.0875 6.91267 26.8332 14.0003 26.8332Z" fill="#D2DBEF"/>
</g>
</g>
<defs>
<clipPath id="clip0_557_995">
<rect width="28" height="28" fill="white"/>
</clipPath>
</defs>
</svg>
