<svg width="24" height="20" viewBox="0 0 24 20" fill="none" xmlns="http://www.w3.org/2000/svg">
<g clip-path="url(#clip0_557_945)">
<path d="M24.0001 17.0001V19.0001C24.0001 19.2709 23.9012 19.5053 23.7033 19.7032C23.5053 19.9012 23.271 20.0001 23.0001 20.0001H1.00001C0.729171 20.0001 0.494794 19.9012 0.296877 19.7032C0.0989589 19.5053 0 19.2709 0 19.0001V17.0001C0 16.7293 0.0989589 16.4949 0.296877 16.297C0.494794 16.099 0.729171 16.0001 1.00001 16.0001H23.0001C23.271 16.0001 23.5053 16.099 23.7033 16.297C23.9012 16.4949 24.0001 16.7293 24.0001 17.0001ZM24.0001 9.00005V11.0001C24.0001 11.2709 23.9012 11.5053 23.7033 11.7032C23.5053 11.9011 23.271 12.0001 23.0001 12.0001H1.00001C0.729171 12.0001 0.494794 11.9011 0.296877 11.7032C0.0989589 11.5053 0 11.2709 0 11.0001V9.00005C0 8.72922 0.0989589 8.49484 0.296877 8.29692C0.494794 8.099 0.729171 8.00004 1.00001 8.00004H23.0001C23.271 8.00004 23.5053 8.099 23.7033 8.29692C23.9012 8.49484 24.0001 8.72922 24.0001 9.00005ZM24.0001 1.00001V3.00002C24.0001 3.27085 23.9012 3.50523 23.7033 3.70315C23.5053 3.90106 23.271 4.00002 23.0001 4.00002H1.00001C0.729171 4.00002 0.494794 3.90106 0.296877 3.70315C0.0989589 3.50523 0 3.27085 0 3.00002V1.00001C0 0.729171 0.0989589 0.494794 0.296877 0.296877C0.494794 0.0989589 0.729171 0 1.00001 0H23.0001C23.271 0 23.5053 0.0989589 23.7033 0.296877C23.9012 0.494794 24.0001 0.729171 24.0001 1.00001Z" fill="black"/>
</g>
<defs>
<clipPath id="clip0_557_945">
<rect width="23.3333" height="19.4444" fill="white" transform="scale(1.02858)"/>
</clipPath>
</defs>
</svg>
