<svg width="28" height="28" viewBox="0 0 28 28" fill="none" xmlns="http://www.w3.org/2000/svg">
<path d="M11.4327 11.4335C11.4327 10.7277 11.6842 10.1237 12.1873 9.62146C12.6903 9.11925 13.2944 8.86772 13.9993 8.86686C14.363 8.86686 14.668 8.74366 14.9144 8.49726C15.1608 8.25086 15.2835 7.94628 15.2827 7.58353C15.2818 7.22077 15.1586 6.9162 14.9131 6.6698C14.6675 6.4234 14.363 6.3002 13.9993 6.3002C12.5877 6.3002 11.3792 6.80283 10.3739 7.80811C9.36865 8.81339 8.86601 10.0219 8.86601 11.4335V14.0002C8.86601 14.3638 8.98921 14.6688 9.23561 14.9152C9.48201 15.1616 9.78659 15.2844 10.1493 15.2835C10.5121 15.2827 10.8171 15.1595 11.0644 14.9139C11.3116 14.6684 11.4344 14.3638 11.4327 14.0002V11.4335ZM3.73268 25.5502C3.02685 25.5502 2.42283 25.2991 1.92062 24.7969C1.4184 24.2947 1.16687 23.6902 1.16602 22.9835V20.4169C1.16602 19.711 1.41755 19.107 1.92062 18.6048C2.42368 18.1026 3.0277 17.8511 3.73268 17.8502H5.01602V11.4335C5.01602 8.93103 5.88783 6.8084 7.63145 5.06563C9.37507 3.32286 11.4977 2.45105 13.9993 2.4502C16.501 2.44934 18.6241 3.32115 20.3685 5.06563C22.113 6.81011 22.9844 8.93274 22.9827 11.4335V17.8502H24.266C24.9718 17.8502 25.5763 18.1017 26.0794 18.6048C26.5824 19.1079 26.8335 19.7119 26.8327 20.4169V22.9835C26.8327 23.6894 26.5816 24.2938 26.0794 24.7969C25.5772 25.2999 24.9727 25.551 24.266 25.5502H3.73268Z" fill="#D2DBEF"/>
</svg>
