<svg width="28" height="28" viewBox="0 0 28 28" fill="none" xmlns="http://www.w3.org/2000/svg">
<path d="M2.33301 11.6667V16.3334C2.33301 17.6167 3.38301 18.6667 4.66634 18.6667H6.99967V9.33336H4.66634C3.38301 9.33336 2.33301 10.3834 2.33301 11.6667ZM25.1647 3.71003C25.008 3.60171 24.8273 3.53338 24.6381 3.51101C24.449 3.48864 24.2573 3.51291 24.0797 3.5817L9.33301 9.2517V18.7484L10.2897 19.11L9.74134 20.7434C9.35634 21.91 9.93967 23.1817 11.0947 23.6484L14.758 25.1184C15.038 25.2234 15.3297 25.2817 15.6213 25.2817C15.9597 25.2817 16.298 25.2117 16.6013 25.06C17.1847 24.7917 17.628 24.29 17.8263 23.6834L18.3163 22.2017L24.068 24.4184C24.208 24.465 24.348 24.5 24.488 24.5C24.7213 24.5 24.9547 24.43 25.153 24.29C25.468 24.0684 25.6547 23.7067 25.6547 23.3334V4.6667C25.6547 4.2817 25.468 3.92003 25.153 3.71003H25.1647ZM15.6213 22.96L11.958 21.49L12.4713 19.95L16.1463 21.3617L15.6213 22.9484V22.96Z" fill="#D2DBEF"/>
</svg>
