<svg width="32" height="32" viewBox="0 0 32 32" fill="none" xmlns="http://www.w3.org/2000/svg">
<path d="M26.0269 9.6945V7.31348C21.0141 7.31348 18.1682 10.5735 15.8221 13.9073C13.476 10.5735 10.63 7.31348 5.61719 7.31348V9.6945C9.8103 9.6945 12.0995 12.6758 14.3813 16.0077C12.0995 19.3397 9.8103 22.321 5.61719 22.321V24.702C10.63 24.702 13.476 21.442 15.8221 18.1082C18.1682 21.442 21.0141 24.702 26.0269 24.702V22.321C21.8338 22.321 19.5446 19.3397 17.2629 16.0077C19.5446 12.6758 21.8338 9.6945 26.0269 9.6945Z" fill="#002775"/>
<path d="M27.666 16.8825V15.1348H21.9354V16.8825H27.666Z" fill="#F7417A"/>
<path d="M18.6876 5.99142H16.6961V4H14.9485V5.99142H12.957V7.73911H14.9485V9.73054H16.6961V7.73911H18.6876V5.99142Z" fill="#4BC8DC"/>
<path d="M18.5264 25.8386V24.2739H13.1172V25.8386H18.5264Z" fill="#64C947"/>
<path d="M16.6035 27.9992V26.4346H15.0389V27.9992H16.6035Z" fill="#64C947"/>
<path d="M16.6035 23.675V22.1104H15.0389V23.675H16.6035Z" fill="#64C947"/>
<path d="M9.62189 14.5996L8.3861 13.3638L6.97796 14.7719L5.56978 13.3638L4.33398 14.5996L5.74216 16.0077L4.33398 17.4159L5.56978 18.6517L6.97796 17.2435L8.3861 18.6517L9.62189 17.4159L8.21375 16.0077L9.62189 14.5996Z" fill="#FF9B4E"/>
</svg>
