<svg width="45" height="45" viewBox="0 0 45 45" fill="none" xmlns="http://www.w3.org/2000/svg">
<path d="M24.258 10.6303C24.9049 10.117 25.3127 9.32245 25.3127 8.43652C25.3127 6.88261 24.0541 5.62402 22.5002 5.62402C20.9463 5.62402 19.6877 6.88261 19.6877 8.43652C19.6877 9.32245 20.1025 10.117 20.7424 10.6303L15.933 18.1959C15.2299 19.2998 13.7322 19.574 12.6846 18.7865L8.50098 15.6576C8.81738 15.2076 9.0002 14.6521 9.0002 14.0615C9.0002 12.5076 7.7416 11.249 6.1877 11.249C4.63379 11.249 3.3752 12.5076 3.3752 14.0615C3.3752 15.5943 4.60567 16.8459 6.13145 16.874L8.42363 32.167C8.7541 34.3678 10.6455 35.999 12.8744 35.999H32.126C34.3549 35.999 36.2463 34.3678 36.5768 32.167L38.8689 16.874C40.3947 16.8459 41.6252 15.5943 41.6252 14.0615C41.6252 12.5076 40.3666 11.249 38.8127 11.249C37.2588 11.249 36.0002 12.5076 36.0002 14.0615C36.0002 14.6521 36.183 15.2076 36.4994 15.6576L32.3229 18.7935C31.2752 19.581 29.7775 19.3068 29.0744 18.2029L24.258 10.6303Z" fill="white"/>
</svg>
