<svg width="40" height="40" viewBox="0 0 40 40" fill="none" xmlns="http://www.w3.org/2000/svg">
<path d="M23.4766 32.4219C23.4766 33.4827 23.0551 34.5002 22.305 35.2503C21.5548 36.0004 20.5374 36.4219 19.4766 36.4219C18.4157 36.4219 17.3983 36.0004 16.6481 35.2503C15.898 34.5002 15.4766 33.4827 15.4766 32.4219C15.4766 31.361 15.898 30.3436 16.6481 29.5934C17.3983 28.8433 18.4157 28.4219 19.4766 28.4219C20.5374 28.4219 21.5548 28.8433 22.305 29.5934C23.0551 30.3436 23.4766 31.361 23.4766 32.4219Z" fill="#E5E5E5"/>
<path fill-rule="evenodd" clip-rule="evenodd" d="M19.4195 9.52656C18.0795 9.52656 16.9295 9.92656 16.1195 10.4986C15.3395 11.0506 14.9535 11.6926 14.8415 12.2466C14.676 12.9871 14.2269 13.6333 13.5905 14.0464C12.954 14.4596 12.181 14.6069 11.4372 14.4567C10.6934 14.3065 10.0382 13.8707 9.61198 13.2429C9.18579 12.6151 9.02264 11.8453 9.15753 11.0986C9.61153 8.84656 11.0075 7.00856 12.7755 5.75856C14.6155 4.45856 16.9475 3.72656 19.4195 3.72656C24.5335 3.72656 29.8355 7.14656 29.8355 12.6386C29.8355 15.8186 27.9455 18.3906 25.4975 19.8906C24.8414 20.2921 24.0526 20.4165 23.3047 20.2365C22.5568 20.0565 21.9111 19.5867 21.5095 18.9306C21.108 18.2744 20.9836 17.4856 21.1636 16.7377C21.3436 15.9898 21.8134 15.3441 22.4695 14.9426C23.6095 14.2446 24.0355 13.3546 24.0355 12.6386C24.0355 11.4906 22.6055 9.52656 19.4195 9.52656Z" fill="#E5E5E5"/>
<path fill-rule="evenodd" clip-rule="evenodd" d="M19.4195 17.2578C21.0195 17.2578 22.3195 18.5538 22.3195 20.1578V23.1618C22.3195 23.9309 22.014 24.6686 21.4701 25.2124C20.9263 25.7563 20.1887 26.0618 19.4195 26.0618C18.6504 26.0618 17.9128 25.7563 17.3689 25.2124C16.8251 24.6686 16.5195 23.9309 16.5195 23.1618V20.1578C16.5195 18.5578 17.8175 17.2578 19.4195 17.2578Z" fill="#E5E5E5"/>
<path fill-rule="evenodd" clip-rule="evenodd" d="M26.4776 15.9252C26.6735 16.2521 26.803 16.6144 26.8588 16.9915C26.9145 17.3685 26.8954 17.7528 26.8026 18.1224C26.7097 18.4921 26.5449 18.8398 26.3175 19.1457C26.0902 19.4516 25.8047 19.7097 25.4776 19.9052L20.9096 22.6392C20.2497 23.0343 19.4599 23.1512 18.7139 22.964C17.9679 22.7769 17.3268 22.301 16.9316 21.6412C16.5364 20.9813 16.4196 20.1915 16.6067 19.4455C16.7939 18.6994 17.2697 18.0583 17.9296 17.6632L22.4996 14.9272C22.8264 14.7316 23.1886 14.6023 23.5654 14.5467C23.9422 14.4911 24.3263 14.5103 24.6957 14.6031C25.0651 14.696 25.4126 14.8607 25.7184 15.0879C26.0241 15.3151 26.2821 15.5983 26.4776 15.9252Z" fill="#E5E5E5"/>
</svg>
