<svg width="16" height="43" viewBox="0 0 16 43" fill="none" xmlns="http://www.w3.org/2000/svg">
<mask id="mask0_447_12930" style="mask-type:luminance" maskUnits="userSpaceOnUse" x="-14" y="0" width="44" height="43">
<path d="M-13.6448 0H29.3552V43H-13.6448V0Z" fill="white"/>
</mask>
<g mask="url(#mask0_447_12930)">
<path fill-rule="evenodd" clip-rule="evenodd" d="M15.7054 4.23281L14.7648 23.0453C14.7131 24.0782 14.2664 25.0517 13.5171 25.7646C12.7677 26.4774 11.7731 26.8749 10.7389 26.875H4.97154C3.93734 26.8749 2.94273 26.4774 2.19341 25.7646C1.44409 25.0517 0.997377 24.0782 0.945667 23.0453L0.00504243 4.23281C-0.0222743 3.68716 0.0616071 3.14165 0.251591 2.62941C0.441576 2.11717 0.733698 1.6489 1.11022 1.25302C1.48674 0.85715 1.93979 0.541941 2.44188 0.326541C2.94396 0.111141 3.48458 4.51005e-05 4.03092 0L11.6795 0C12.2259 4.51005e-05 12.7665 0.111141 13.2686 0.326541C13.7707 0.541941 14.2237 0.85715 14.6002 1.25302C14.9768 1.6489 15.2689 2.11717 15.4589 2.62941C15.6489 3.14165 15.7327 3.68716 15.7054 4.23281ZM7.85523 29.5625C9.63715 29.5625 11.3461 30.2704 12.6061 31.5304C13.8661 32.7904 14.574 34.4993 14.574 36.2812C14.574 38.0632 13.8661 39.7721 12.6061 41.0321C11.3461 42.2921 9.63715 43 7.85523 43C6.07331 43 4.36437 42.2921 3.10436 41.0321C1.84435 39.7721 1.13648 38.0632 1.13648 36.2812C1.13648 34.4993 1.84435 32.7904 3.10436 31.5304C4.36437 30.2704 6.07331 29.5625 7.85523 29.5625Z" fill="white"/>
</g>
</svg>
