<svg width="32" height="32" viewBox="0 0 32 32" fill="none" xmlns="http://www.w3.org/2000/svg">
<path d="M16.2363 2.50977C17.3941 2.6027 18.1874 3.36933 18.7549 4.11035C19.3594 4.89972 19.9909 6.04012 20.7266 7.35938L21.1201 8.06445V8.06543C21.3471 8.47267 21.4769 8.70347 21.5869 8.86914C21.6362 8.94339 21.6681 8.98211 21.6855 9.00195C21.6938 9.01132 21.6984 9.01684 21.7002 9.01855C21.7011 9.0194 21.702 9.01942 21.7021 9.01953C21.7148 9.02672 21.7557 9.04732 21.8535 9.07812C22.0323 9.13441 22.2767 9.19004 22.7197 9.29004L22.7207 9.29102L23.4844 9.46387L24.5166 9.69922C25.5103 9.93016 26.3814 10.1534 27.0674 10.4238C28.0105 10.7956 28.9866 11.4021 29.3633 12.6113L29.3643 12.6123C29.7349 13.8055 29.2946 14.866 28.7529 15.7266C28.3542 16.3601 27.7805 17.0703 27.1074 17.8662L26.4033 18.6914L25.8828 19.2979L25.8838 19.2988C25.5831 19.6507 25.4134 19.8505 25.2969 20.0107C25.2448 20.0824 25.2186 20.1262 25.2051 20.1514C25.1951 20.17 25.19 20.179 25.1885 20.1836L25.1895 20.1846C25.1714 20.2428 25.1526 20.3316 25.251 21.3467L25.3301 22.1592V22.1602C25.4772 23.6819 25.6072 24.9874 25.5625 25.9912C25.5177 26.9975 25.285 28.1451 24.2803 28.9072C23.2517 29.6874 22.0822 29.5627 21.1201 29.2871C20.1771 29.0169 19.016 28.4783 17.6826 27.8643V27.8633L16.9678 27.5361L16.9648 27.5342C16.5514 27.3433 16.3214 27.2388 16.1455 27.1748C15.9953 27.1202 15.9742 27.1299 16 27.1299C16.0258 27.1299 16.0047 27.1202 15.8545 27.1748C15.6786 27.2388 15.4486 27.3433 15.0352 27.5342L15.0332 27.5352L14.3174 27.8633L14.3184 27.8643C12.9845 28.4782 11.8236 29.0168 10.8809 29.2871C9.97982 29.5454 8.89548 29.6716 7.91602 29.0439L7.7207 28.9082C6.71618 28.1459 6.48256 26.9993 6.4375 25.9922C6.3926 24.988 6.5228 23.682 6.66992 22.1602V22.1592L6.74902 21.3477C6.79428 20.88 6.81924 20.6119 6.82324 20.4082C6.82504 20.3167 6.8218 20.2632 6.81836 20.2324C6.81544 20.2065 6.81274 20.1953 6.81152 20.1914L6.80859 20.1826C6.80765 20.1796 6.80435 20.1706 6.79297 20.1494C6.77983 20.1249 6.75385 20.0819 6.70215 20.0107C6.5864 19.8514 6.41784 19.652 6.11719 19.3008L6.11621 19.2998L5.5957 18.6904V18.6895C4.62211 17.5515 3.77867 16.5721 3.24707 15.7275C2.70514 14.8665 2.26561 13.8064 2.63574 12.6133L2.71387 12.3926C3.13443 11.3272 4.04846 10.7713 4.93262 10.4229C5.61906 10.1523 6.49046 9.92893 7.48438 9.69824L8.51758 9.46289L9.28027 9.29102L9.8125 9.16797C9.95086 9.13439 10.0563 9.10623 10.1455 9.07812C10.2239 9.05341 10.2648 9.03562 10.2842 9.02637C10.293 9.02213 10.2976 9.01927 10.2988 9.01855H10.2998C10.3091 9.01002 10.3441 8.97409 10.4131 8.87012C10.5231 8.70434 10.6523 8.47377 10.8799 8.06543V8.06445L11.2734 7.35938C12.0091 6.04012 12.6406 4.89972 13.2451 4.11035C13.8504 3.31995 14.7126 2.5 16 2.5L16.2363 2.50977Z" fill="#FFC800" stroke="white" stroke-width="3"/>
</svg>
