<svg width="263" height="100" viewBox="0 0 263 100" fill="none" xmlns="http://www.w3.org/2000/svg">
<path d="M63.4391 19.4541C77.534 -2.07775 88.9546 0.0585691 99.6282 0.0585691C110.302 0.0585691 204.461 0.0585691 224.707 0.0585691C241.485 0.0585691 257.869 13.9527 262.993 18.7153V99.4699H0V23.9838C0 23.9838 40.8069 23.9838 49.9626 23.9838C59.1183 23.9838 61.2466 22.4257 63.4311 19.4622L63.4391 19.4541Z" fill="#EEF0F6"/>
<path d="M83.9026 1.31954C79.7665 2.61257 75.4296 5.1344 70.8116 9.97727L91.0665 32.1276L105.475 17.3661L83.9026 1.31954Z" fill="white"/>
<path d="M0.00783108 35.2262V99.4765H263V24.7775C257.419 19.0994 250.239 13.7264 243.067 13.7264H112.703C101.885 13.7264 90.657 13.2205 82.1921 26.7371C81.8467 27.2913 81.4691 27.8213 81.0676 28.3353C77.5499 32.7927 72.0564 35.2262 66.3783 35.2262H0.00783108Z" fill="#E0E6EF"/>
<path d="M75.5738 60.8143C75.5738 60.8143 86.7054 36.1663 91.3796 28.6249C96.0618 21.0836 99.9088 19.4211 109.892 19.4211C119.875 19.4211 236.047 19.4211 243.982 19.4211C250.102 19.4211 259.161 29.5325 263 34.1665V99.4689H85.5569L75.5738 60.8063V60.8143Z" fill="#295CAB"/>
<path d="M174.544 63.9152C171.428 40.761 157.558 24.8108 131.504 25.5417C114.887 26.0075 92.8656 34.3119 91.1309 62.4937C89.9985 80.9496 103.435 93.2053 112.839 99.4697H153.02C160.69 94.4903 176.937 81.6965 174.544 63.9152Z" fill="#D9E1EC"/>
<path d="M159.999 94.2825L133.046 62.1493L93.1226 51.3954C92.0786 54.7043 91.3879 58.3826 91.1309 62.5027C89.9985 80.9586 103.435 93.2143 112.839 99.4787H153.02C154.948 98.2258 157.421 96.483 159.999 94.2825Z" fill="#CFD9E9"/>
<path d="M92.4645 53.7422L133.047 62.151L131.215 25.5685C116.51 26.0584 97.733 32.7083 92.4645 53.7422Z" fill="white"/>
<path d="M133.046 99.4687C153.592 99.4687 170.247 83.4856 170.247 63.7696C170.247 44.0535 153.592 28.0705 133.046 28.0705C112.501 28.0705 95.8456 44.0535 95.8456 63.7696C95.8456 83.4856 112.501 99.4687 133.046 99.4687Z" fill="#063372"/>
<path d="M133.047 94.241C151.445 94.241 166.36 80.3363 166.36 63.184C166.36 46.0317 151.445 32.127 133.047 32.127C114.648 32.127 99.7327 46.0317 99.7327 63.184C99.7327 80.3363 114.648 94.241 133.047 94.241Z" fill="#02BDE4"/>
<path d="M133.319 62.5011L133.536 32.1429C133.375 32.1429 133.215 32.1348 133.046 32.1348C124.043 32.1348 115.875 35.4678 109.884 40.8809L133.319 62.5092V62.5011Z" fill="#05C5EC"/>
<path d="M133.151 32.127V62.1239L154.899 39.7487C149.077 35.0263 141.471 32.1511 133.151 32.127Z" fill="#16DAF2"/>
<path d="M133.046 62.1403L154.851 39.7169C153.534 38.6568 152.137 37.685 150.651 36.8257L133.046 62.1483V62.1403Z" fill="#92F0FD"/>
<path d="M87.7249 99.4772H84.384L66.3136 35.2269H66.3777C67.4539 35.2269 68.5301 35.1385 69.5822 34.9619L87.7249 99.4772Z" fill="#B8C1D6"/>
<path d="M156.297 62.5419H166.344C166.344 62.2769 166.336 62.0038 166.32 61.7388H156.289C156.168 55.6832 153.349 50.2299 148.9 46.3749L155.108 39.9178C154.899 39.7491 154.691 39.5804 154.482 39.4118L148.282 45.8529C144.322 42.6564 139.198 40.6888 133.585 40.5683V32.1274C133.408 32.1274 133.223 32.1113 133.046 32.1113C132.958 32.1113 132.87 32.1113 132.781 32.1113V40.5522C126.573 40.6165 120.943 42.9456 116.807 46.6962L110.133 40.6325C109.932 40.8092 109.723 40.9859 109.531 41.1706L116.221 47.2503C112.334 51.0331 109.908 56.1169 109.796 61.7227H99.7647C99.7486 61.9877 99.7486 62.2608 99.7406 62.5258H109.788C109.908 68.6537 112.792 74.1551 117.329 78.0182L110.029 85.6078C110.229 85.7845 110.422 85.9692 110.631 86.1378L117.955 78.5242C121.955 81.6965 127.127 83.6321 132.773 83.6883V94.2093C132.862 94.2093 132.95 94.2093 133.038 94.2093C133.223 94.2093 133.4 94.2012 133.576 94.1932V83.6722C139.745 83.5437 145.326 81.1745 149.414 77.4078L157.213 84.4994C157.405 84.3147 157.598 84.122 157.783 83.9292L149.992 76.8456C153.799 73.079 156.169 68.0433 156.281 62.5017L156.297 62.5419ZM149.414 76.3477L142.258 69.8423C144.154 67.8907 145.334 65.3448 145.439 62.5499H155.502C155.389 67.8827 153.101 72.7256 149.422 76.3477H149.414ZM121.465 62.5419H132.243L125.12 69.9467C122.959 68.0755 121.586 65.4573 121.465 62.5419ZM144.628 61.7388H134.131L141.126 54.4624C143.198 56.3257 144.515 58.8877 144.628 61.7388ZM133.585 61.1445V51.4427C136.211 51.5551 138.62 52.4707 140.507 53.9404L133.585 61.1364V61.1445ZM132.147 61.7388H121.465C121.57 59.0804 122.726 56.671 124.565 54.8479L132.147 61.7388ZM125.16 54.3018C127.176 52.5751 129.842 51.4908 132.789 51.4346V61.2328L125.16 54.3018ZM132.781 63.1362V72.846C130.115 72.7898 127.673 71.9064 125.738 70.4608L132.781 63.1362ZM133.585 63.0479L141.078 69.8584C139.11 71.6012 136.484 72.7095 133.585 72.838V63.0479ZM134.227 62.5419H144.636C144.531 65.136 143.431 67.4892 141.664 69.2962L134.227 62.5419ZM155.494 61.7388H145.431C145.318 58.6628 143.905 55.892 141.68 53.8842L148.346 46.9532C152.643 50.6636 155.373 55.9081 155.494 61.7388ZM147.728 46.4472L141.07 53.3702C139.03 51.7639 136.436 50.76 133.585 50.6476V41.3875C138.982 41.508 143.913 43.3953 147.728 46.4472ZM132.781 41.3795V50.6395C129.601 50.7038 126.718 51.8763 124.557 53.7717L117.401 47.2664C121.393 43.6764 126.806 41.4437 132.781 41.3795ZM116.815 47.8125L123.971 54.3179C122.003 56.2855 120.767 58.8796 120.662 61.7468H110.599C110.711 56.3498 113.056 51.4587 116.815 47.8125ZM110.599 62.5419H120.662C120.783 65.6821 122.252 68.5091 124.565 70.525L117.899 77.456C113.514 73.7375 110.727 68.4369 110.607 62.5419H110.599ZM118.518 77.97L125.176 71.047C127.256 72.6372 129.898 73.601 132.781 73.6572V82.9173C127.352 82.8611 122.373 81.0058 118.518 77.978V77.97ZM133.585 82.9012V73.6411C136.725 73.5126 139.56 72.3079 141.68 70.4045L148.836 76.9018C144.893 80.5079 139.528 82.7727 133.593 82.9012H133.585Z" fill="#0774B7"/>
<path d="M174.198 34.7644L183.643 84.189C184.599 89.1845 188.968 92.7985 194.06 92.7985H243.332C248.793 92.7985 252.776 87.6264 251.379 82.3418L238.77 34.7163C237.573 30.2027 233.493 27.0464 228.827 27.0303L180.8 26.8215C176.592 26.8054 173.419 30.6283 174.206 34.7644H174.198Z" fill="#0F3E87"/>
<path d="M188.261 36.7L189.69 44.4342C189.931 45.7513 191.08 46.699 192.421 46.699H205.03C206.789 46.699 208.106 45.0767 207.745 43.3499L206.106 35.6158C205.833 34.3308 204.701 33.4152 203.392 33.4152H190.984C189.249 33.4152 187.94 34.9894 188.253 36.692L188.261 36.7Z" fill="#FCD738"/>
<path d="M210.451 36.7L211.881 44.4342C212.122 45.7513 213.27 46.699 214.611 46.699H227.22C228.979 46.699 230.297 45.0767 229.935 43.3499L228.297 35.6158C228.024 34.3308 226.891 33.4152 225.582 33.4152H213.174C211.439 33.4152 210.13 34.9894 210.443 36.692L210.451 36.7Z" fill="#0F99CD"/>
<path d="M214.194 54.6763L215.624 62.4104C215.865 63.7275 217.013 64.6752 218.355 64.6752H230.964C232.723 64.6752 234.04 63.0529 233.678 61.3262L232.04 53.592C231.767 52.307 230.635 51.3915 229.325 51.3915H216.917C215.182 51.3915 213.873 52.9656 214.186 54.6682L214.194 54.6763Z" fill="#FE9F75"/>
<path d="M191.803 54.6763L193.233 62.4104C193.474 63.7275 194.622 64.6752 195.964 64.6752H208.573C210.332 64.6752 211.649 63.0529 211.287 61.3262L209.649 53.592C209.376 52.307 208.243 51.3915 206.934 51.3915H194.526C192.791 51.3915 191.482 52.9656 191.795 54.6682L191.803 54.6763Z" fill="#91A4C5"/>
<path d="M195.16 72.6408L196.59 80.3749C196.831 81.692 197.979 82.6397 199.32 82.6397H211.929C213.688 82.6397 215.005 81.0174 214.644 79.2907L213.006 71.5565C212.732 70.2715 211.6 69.356 210.291 69.356H197.883C196.148 69.356 194.839 70.9301 195.152 72.6327L195.16 72.6408Z" fill="#B3C2DA"/>
<path d="M218.291 73.0323L219.721 80.7665C219.962 82.0836 221.11 83.0313 222.451 83.0313H235.06C236.819 83.0313 238.136 81.409 237.775 79.6822L236.137 71.9481C235.864 70.6631 234.731 69.7475 233.422 69.7475H221.014C219.279 69.7475 217.97 71.3217 218.283 73.0243L218.291 73.0323Z" fill="#B6C4DC"/>
<path d="M133.151 64.7985C134.628 64.7985 135.825 63.6011 135.825 62.1241C135.825 60.647 134.628 59.4497 133.151 59.4497C131.674 59.4497 130.477 60.647 130.477 62.1241C130.477 63.6011 131.674 64.7985 133.151 64.7985Z" fill="white"/>
<path d="M41.2083 63.264L38.7748 54.3894C38.0199 51.6427 35.522 49.7313 32.6709 49.7313H13.669C9.58908 49.7313 6.57722 53.5381 7.50885 57.5056L9.0751 64.1635C9.38832 65.5047 10.1191 66.7416 11.2435 67.5286C11.886 67.9784 12.5687 68.2836 13.2594 68.3077C15.2511 68.3719 28.4385 68.3558 37.3532 68.3317C39.9955 68.3317 41.915 65.8019 41.2083 63.256V63.264Z" fill="#BCC7DB"/>
<path d="M46.8065 83.6773L44.903 76.7382C44.7504 76.1761 44.4773 75.646 44.0758 75.2203C43.2325 74.3289 42.2768 73.6944 41.2648 73.6944H15.9582C15.9582 73.6944 15.9101 73.6944 15.8861 73.6944C13.5249 73.7185 11.8382 76.0154 12.3843 78.3124L14.3761 86.8014C15.0507 89.6606 17.5968 91.6845 20.5362 91.6845H40.7027C44.8789 91.6845 47.9148 87.709 46.8065 83.6773Z" fill="#A4B2C9"/>
<path d="M26.1583 91.6845H34.2135C33.9967 88.0865 33.2017 78.3686 30.704 73.6944H23.3474C24.263 76.6579 26.5358 84.8177 26.1583 91.6845Z" fill="#1F3250"/>
<path d="M41.0554 91.6606L37.7064 73.6866H35.6745L39.1521 91.6766H40.7021C40.8226 91.6766 40.9349 91.6606 41.0474 91.6526L41.0554 91.6606Z" fill="#667FA5"/>
<path d="M21.1142 91.6845H23.0175L19.6685 73.6944H17.6366L21.1142 91.6845Z" fill="#667FA5"/>
<path d="M36.0525 64.6301L26.2061 79.3274C26.2061 79.3274 25.2666 81.3352 28.182 83.4153C31.0974 85.4954 33.2978 82.58 33.2978 82.58L42.8069 68.959L36.0445 64.6221L36.0525 64.6301Z" fill="#526178"/>
<path d="M38.5822 66.2442L36.0603 64.6299L26.2139 79.3272C26.2139 79.3272 25.6839 80.4596 26.6557 81.9052C27.5391 81.584 28.8081 80.9334 30.1012 79.6083C31.8279 77.8253 36.3174 70.1956 38.5903 66.2522L38.5822 66.2442Z" fill="#73809A"/>
<path d="M44.6217 70.4683C50.8714 70.4683 55.9377 65.4019 55.9377 59.1522C55.9377 52.9025 50.8714 47.8362 44.6217 47.8362C38.372 47.8362 33.3056 52.9025 33.3056 59.1522C33.3056 65.4019 38.372 70.4683 44.6217 70.4683Z" fill="#FC9912"/>
<path d="M51.4564 55.8417C51.0629 55.8417 50.6854 55.649 50.4525 55.3036C49.7538 54.2516 48.79 53.4083 47.6496 52.8541C47.0472 52.565 46.7981 51.8422 47.0872 51.2478C47.3764 50.6455 48.0992 50.3965 48.6935 50.6857C50.2194 51.4245 51.5207 52.5569 52.4603 53.9705C52.8298 54.5246 52.677 55.2715 52.1229 55.641C51.9221 55.7775 51.6893 55.8417 51.4564 55.8417Z" fill="white"/>
<path d="M45.4729 64.0853C39.8189 64.0853 35.1528 59.9411 34.3015 54.52C33.667 55.9335 33.3056 57.4996 33.3056 59.154C33.3056 65.4024 38.3734 70.4701 44.6217 70.4701C50.8701 70.4701 55.9377 65.4024 55.9377 59.154C55.9377 58.5517 55.8815 57.9734 55.7852 57.3952C54.0102 61.3386 50.0668 64.0853 45.4649 64.0853H45.4729Z" fill="#EC5E23"/>
</svg>
