<svg width="263" height="100" viewBox="0 0 263 100" fill="none" xmlns="http://www.w3.org/2000/svg">
<path d="M63.4391 19.4541C77.534 -2.07775 88.9546 0.0585691 99.6282 0.0585691C110.302 0.0585691 204.461 0.0585691 224.707 0.0585691C241.485 0.0585691 257.869 13.9527 262.993 18.7153V99.4699H0V23.9838C0 23.9838 40.8069 23.9838 49.9626 23.9838C59.1183 23.9838 61.2466 22.4257 63.4311 19.4622L63.4391 19.4541Z" fill="#FDF6EC"/>
<path d="M83.9026 1.32052C79.7665 2.61355 75.4296 5.13538 70.8116 9.97825L91.0665 32.1285L105.475 17.367L83.9026 1.32052Z" fill="#FFFCF8"/>
<path d="M0.00783108 35.2272V99.4775H263V24.7785C257.419 19.1003 250.239 13.7274 243.067 13.7274H112.703C101.885 13.7274 90.657 13.2214 82.1921 26.7381C81.8467 27.2922 81.4691 27.8223 81.0676 28.3363C77.5499 32.7937 72.0564 35.2272 66.3783 35.2272H0.00783108Z" fill="#ECE3D8"/>
<path d="M75.5738 60.8153C75.5738 60.8153 86.7054 36.1673 91.3796 28.6259C96.0618 21.0845 99.9088 19.4221 109.892 19.4221C119.875 19.4221 236.047 19.4221 243.982 19.4221C250.102 19.4221 259.161 29.5335 263 34.1675V99.4699H85.5569L75.5738 60.8073V60.8153Z" fill="#457F94"/>
<path d="M174.544 63.9162C171.428 40.762 157.558 24.8118 131.504 25.5427C114.887 26.0085 92.8656 34.3128 91.1309 62.4946C89.9985 80.9505 103.435 93.2063 112.839 99.4707H153.02C160.69 94.4913 176.937 81.6974 174.544 63.9162Z" fill="#BED6D2"/>
<path d="M159.999 94.2825L133.046 62.1493L93.1226 51.3954C92.0786 54.7043 91.3879 58.3826 91.1309 62.5027C89.9985 80.9586 103.435 93.2143 112.839 99.4787H153.02C154.948 98.2258 157.421 96.483 159.999 94.2825Z" fill="#B8C6CA"/>
<path d="M92.4645 53.7403L133.047 62.149L131.215 25.5665C116.51 26.0564 97.733 32.7063 92.4645 53.7403Z" fill="#C7DFDA"/>
<path d="M133.046 99.4696C153.592 99.4696 170.247 83.4866 170.247 63.7706C170.247 44.0545 153.592 28.0715 133.046 28.0715C112.501 28.0715 95.8456 44.0545 95.8456 63.7706C95.8456 83.4866 112.501 99.4696 133.046 99.4696Z" fill="#024E50"/>
<path d="M133.047 94.242C151.445 94.242 166.36 80.3373 166.36 63.185C166.36 46.0327 151.445 32.128 133.047 32.128C114.648 32.128 99.7327 46.0327 99.7327 63.185C99.7327 80.3373 114.648 94.242 133.047 94.242Z" fill="#01B89D"/>
<path d="M133.319 62.5021L133.536 32.1439C133.375 32.1439 133.215 32.1358 133.046 32.1358C124.043 32.1358 115.875 35.4688 109.884 40.8819L133.319 62.5102V62.5021Z" fill="#02BAA2"/>
<path d="M133.151 32.128V62.1249L154.899 39.7497C149.077 35.0273 141.471 32.1521 133.151 32.128Z" fill="#00CCAE"/>
<path d="M133.046 62.1413L154.851 39.7179C153.534 38.6578 152.137 37.686 150.651 36.8266L133.046 62.1493V62.1413Z" fill="#B3ECE3"/>
<path d="M87.7249 99.4782H84.384L66.3136 35.2279H66.3777C67.4539 35.2279 68.5301 35.1395 69.5822 34.9628L87.7249 99.4782Z" fill="#DFD5C9"/>
<path d="M156.297 62.5429H166.344C166.344 62.2778 166.336 62.0048 166.32 61.7398H156.289C156.168 55.6842 153.349 50.2309 148.9 46.3759L155.108 39.9187C154.899 39.7501 154.691 39.5814 154.482 39.4128L148.282 45.8539C144.322 42.6574 139.198 40.6897 133.585 40.5693V32.1284C133.408 32.1284 133.223 32.1123 133.046 32.1123C132.958 32.1123 132.87 32.1123 132.781 32.1123V40.5532C126.573 40.6175 120.943 42.9465 116.807 46.6971L110.133 40.6335C109.932 40.8102 109.723 40.9869 109.531 41.1716L116.221 47.2513C112.334 51.034 109.908 56.1178 109.796 61.7237H99.7647C99.7486 61.9887 99.7486 62.2618 99.7406 62.5268H109.788C109.908 68.6547 112.792 74.1561 117.329 78.0192L110.029 85.6087C110.229 85.7854 110.422 85.9702 110.631 86.1388L117.955 78.5251C121.955 81.6975 127.127 83.633 132.773 83.6893V94.2103C132.862 94.2103 132.95 94.2103 133.038 94.2103C133.223 94.2103 133.4 94.2022 133.576 94.1942V83.6732C139.745 83.5447 145.326 81.1755 149.414 77.4088L157.213 84.5004C157.405 84.3157 157.598 84.123 157.783 83.9302L149.992 76.8466C153.799 73.0799 156.169 68.0443 156.281 62.5027L156.297 62.5429ZM149.414 76.3487L142.258 69.8433C144.154 67.8917 145.334 65.3458 145.439 62.5509H155.502C155.389 67.8837 153.101 72.7266 149.422 76.3487H149.414ZM121.465 62.5429H132.243L125.12 69.9477C122.959 68.0764 121.586 65.4582 121.465 62.5429ZM144.628 61.7398H134.131L141.126 54.4634C143.198 56.3267 144.515 58.8886 144.628 61.7398ZM133.585 61.1454V51.4436C136.211 51.5561 138.62 52.4716 140.507 53.9414L133.585 61.1374V61.1454ZM132.147 61.7398H121.465C121.57 59.0814 122.726 56.672 124.565 54.8489L132.147 61.7398ZM125.16 54.3028C127.176 52.5761 129.842 51.4918 132.789 51.4356V61.2338L125.16 54.3028ZM132.781 63.1372V72.847C130.115 72.7908 127.673 71.9074 125.738 70.4617L132.781 63.1372ZM133.585 63.0489L141.078 69.8594C139.11 71.6022 136.484 72.7105 133.585 72.839V63.0489ZM134.227 62.5429H144.636C144.531 65.137 143.431 67.4902 141.664 69.2972L134.227 62.5429ZM155.494 61.7398H145.431C145.318 58.6638 143.905 55.893 141.68 53.8851L148.346 46.9541C152.643 50.6646 155.373 55.909 155.494 61.7398ZM147.728 46.4482L141.07 53.3711C139.03 51.7649 136.436 50.761 133.585 50.6485V41.3885C138.982 41.5089 143.913 43.3963 147.728 46.4482ZM132.781 41.3804V50.6405C129.601 50.7048 126.718 51.8773 124.557 53.7727L117.401 47.2674C121.393 43.6774 126.806 41.4447 132.781 41.3804ZM116.815 47.8135L123.971 54.3188C122.003 56.2865 120.767 58.8806 120.662 61.7478H110.599C110.711 56.3508 113.056 51.4597 116.815 47.8135ZM110.599 62.5429H120.662C120.783 65.6831 122.252 68.5101 124.565 70.526L117.899 77.457C113.514 73.7385 110.727 68.4378 110.607 62.5429H110.599ZM118.518 77.971L125.176 71.048C127.256 72.6382 129.898 73.602 132.781 73.6582V82.9183C127.352 82.862 122.373 81.0068 118.518 77.979V77.971ZM133.585 82.9022V73.6421C136.725 73.5136 139.56 72.3089 141.68 70.4055L148.836 76.9028C144.893 80.5089 139.528 82.7737 133.593 82.9022H133.585Z" fill="#4BD0BA"/>
<path d="M174.198 34.7644L183.643 84.189C184.599 89.1845 188.968 92.7985 194.06 92.7985H243.332C248.793 92.7985 252.776 87.6264 251.379 82.3418L238.77 34.7163C237.573 30.2027 233.493 27.0464 228.827 27.0303L180.8 26.8215C176.592 26.8054 173.419 30.6283 174.206 34.7644H174.198Z" fill="#095A63"/>
<path d="M188.261 36.7L189.69 44.4342C189.931 45.7513 191.08 46.699 192.421 46.699H205.03C206.789 46.699 208.106 45.0767 207.745 43.3499L206.106 35.6158C205.833 34.3308 204.701 33.4152 203.392 33.4152H190.984C189.249 33.4152 187.94 34.9894 188.253 36.692L188.261 36.7Z" fill="#FDD44E"/>
<path d="M210.451 36.7L211.881 44.4342C212.122 45.7513 213.27 46.699 214.611 46.699H227.22C228.979 46.699 230.297 45.0767 229.935 43.3499L228.297 35.6158C228.024 34.3308 226.891 33.4152 225.582 33.4152H213.174C211.439 33.4152 210.13 34.9894 210.443 36.692L210.451 36.7Z" fill="#01DBD2"/>
<path d="M214.194 54.6733L215.624 62.4075C215.865 63.7246 217.013 64.6723 218.355 64.6723H230.964C232.723 64.6723 234.04 63.05 233.678 61.3232L232.04 53.5891C231.767 52.3041 230.635 51.3885 229.325 51.3885H216.917C215.182 51.3885 213.873 52.9627 214.186 54.6653L214.194 54.6733Z" fill="#FDAFB3"/>
<path d="M191.803 54.6733L193.233 62.4075C193.474 63.7246 194.622 64.6723 195.964 64.6723H208.573C210.332 64.6723 211.649 63.05 211.287 61.3232L209.649 53.5891C209.376 52.3041 208.243 51.3885 206.934 51.3885H194.526C192.791 51.3885 191.482 52.9627 191.795 54.6653L191.803 54.6733Z" fill="#96A8B1"/>
<path d="M195.16 72.6408L196.59 80.3749C196.831 81.692 197.979 82.6397 199.32 82.6397H211.929C213.688 82.6397 215.005 81.0174 214.644 79.2907L213.006 71.5565C212.732 70.2715 211.6 69.356 210.291 69.356H197.883C196.148 69.356 194.839 70.9301 195.152 72.6327L195.16 72.6408Z" fill="#A0B0B9"/>
<path d="M218.291 73.0323L219.721 80.7665C219.962 82.0836 221.11 83.0313 222.451 83.0313H235.06C236.819 83.0313 238.136 81.409 237.775 79.6822L236.137 71.9481C235.864 70.6631 234.731 69.7475 233.422 69.7475H221.014C219.279 69.7475 217.97 71.3217 218.283 73.0243L218.291 73.0323Z" fill="#A3B3BA"/>
<path d="M133.151 64.7995C134.628 64.7995 135.825 63.6021 135.825 62.1251C135.825 60.648 134.628 59.4506 133.151 59.4506C131.674 59.4506 130.477 60.648 130.477 62.1251C130.477 63.6021 131.674 64.7995 133.151 64.7995Z" fill="#DCFDFF"/>
<path d="M41.2083 63.266L38.7748 54.3914C38.0199 51.6447 35.522 49.7332 32.6709 49.7332H13.669C9.58908 49.7332 6.57722 53.5401 7.50885 57.5075L9.0751 64.1655C9.38832 65.5067 10.1191 66.7435 11.2435 67.5306C11.886 67.9803 12.5687 68.2855 13.2594 68.3096C15.2511 68.3739 28.4385 68.3578 37.3532 68.3337C39.9955 68.3337 41.915 65.8038 41.2083 63.2579V63.266Z" fill="#989F9E"/>
<path d="M46.8065 83.6812L44.903 76.7422C44.7504 76.18 44.4773 75.6499 44.0758 75.2242C43.2325 74.3328 42.2768 73.6983 41.2648 73.6983H15.9582C15.9582 73.6983 15.9101 73.6983 15.8861 73.6983C13.5249 73.7224 11.8382 76.0193 12.3843 78.3163L14.3761 86.8054C15.0507 89.6645 17.5968 91.6884 20.5362 91.6884H40.7027C44.8789 91.6884 47.9148 87.7129 46.8065 83.6812Z" fill="#5B8595"/>
<path d="M26.1583 91.6884H34.2135C33.9967 88.0904 33.2017 78.3725 30.704 73.6983H23.3474C24.263 76.6618 26.5358 84.8216 26.1583 91.6884Z" fill="#163C41"/>
<path d="M41.0554 91.6645L37.7064 73.6905H35.6745L39.1521 91.6806H40.7021C40.8226 91.6806 40.9349 91.6645 41.0474 91.6565L41.0554 91.6645Z" fill="#467989"/>
<path d="M21.1142 91.6884H23.0175L19.6685 73.6983H17.6366L21.1142 91.6884Z" fill="#467989"/>
<path d="M36.0525 64.6321L26.2061 79.3293C26.2061 79.3293 25.2666 81.3371 28.182 83.4173C31.0974 85.4974 33.2978 82.582 33.2978 82.582L42.8069 68.9609L36.0445 64.624L36.0525 64.6321Z" fill="#556168"/>
<path d="M38.5822 66.2462L36.0603 64.6319L26.2139 79.3291C26.2139 79.3291 25.6839 80.4615 26.6557 81.9072C27.5391 81.5859 28.8081 80.9354 30.1012 79.6102C31.8279 77.8273 36.3174 70.1975 38.5903 66.2542L38.5822 66.2462Z" fill="#6F7983"/>
<path d="M44.6217 70.4703C50.8714 70.4703 55.9377 65.4039 55.9377 59.1542C55.9377 52.9045 50.8714 47.8381 44.6217 47.8381C38.372 47.8381 33.3056 52.9045 33.3056 59.1542C33.3056 65.4039 38.372 70.4703 44.6217 70.4703Z" fill="#FDA10B"/>
<path d="M51.4564 55.8457C51.0629 55.8457 50.6854 55.6529 50.4525 55.3076C49.7538 54.2555 48.79 53.4122 47.6496 52.858C47.0472 52.5689 46.7981 51.8461 47.0872 51.2518C47.3764 50.6494 48.0992 50.4004 48.6935 50.6896C50.2194 51.4285 51.5207 52.5609 52.4603 53.9744C52.8298 54.5285 52.677 55.2754 52.1229 55.6449C51.9221 55.7814 51.6893 55.8457 51.4564 55.8457Z" fill="#FECA52"/>
<path d="M45.4729 64.0853C39.8189 64.0853 35.1528 59.9411 34.3015 54.52C33.667 55.9335 33.3056 57.4996 33.3056 59.154C33.3056 65.4024 38.3734 70.4701 44.6217 70.4701C50.8701 70.4701 55.9377 65.4024 55.9377 59.154C55.9377 58.5517 55.8815 57.9734 55.7852 57.3952C54.0102 61.3386 50.0668 64.0853 45.4649 64.0853H45.4729Z" fill="#FD7911"/>
</svg>
