<svg width="263" height="100" viewBox="0 0 263 100" fill="none" xmlns="http://www.w3.org/2000/svg">
<path d="M199.561 19.4541C185.466 -2.07775 174.046 0.0585691 163.372 0.0585691H38.2929C21.5156 0.0585691 5.13179 13.9527 0.00783108 18.7153V99.4699H263V23.9838H213.038C203.882 23.9838 201.754 22.4257 199.569 19.4622L199.561 19.4541Z" fill="#EEF0F6"/>
<path d="M190.285 8.09696C184.463 2.68388 179.09 0.84471 173.99 0.258426C166.416 7.64721 156.241 17.606 156.433 17.606C156.747 17.606 175.275 26.1352 175.275 26.1352L190.285 8.09696Z" fill="white"/>
<path d="M262.993 35.2262V99.4765H0V24.7775C5.58174 19.0994 12.7618 13.7264 19.9337 13.7264H150.297C161.116 13.7264 172.343 13.2205 180.808 26.7371C181.154 27.2913 181.531 27.8213 181.933 28.3353C185.451 32.7927 190.944 35.2262 196.622 35.2262H262.993Z" fill="#E0E6EF"/>
<path d="M187.426 60.8143C187.426 60.8143 176.295 36.1663 171.621 28.6249C166.938 21.0836 163.091 19.4211 153.108 19.4211H19.018C12.8982 19.4211 3.83896 29.5325 0 34.1665V99.4689H177.443L187.426 60.8063V60.8143Z" fill="#295CAB"/>
<path d="M175.275 99.4772H178.616L196.687 35.2269H196.622C195.546 35.2269 194.47 35.1385 193.418 34.9619L175.275 99.4772Z" fill="#C9D1DF"/>
<path d="M16.1028 35.6122C12.818 42.4388 5.14002 59.6418 0 71.2149V77.158C4.81877 66.2836 14.4965 44.5269 18.2792 36.6562C22.1342 28.633 26.7442 22.1035 28.736 19.4211H25.7484C23.4113 22.6818 19.5161 28.5205 16.1108 35.6122H16.1028Z" fill="#1850A8"/>
<path d="M161.47 57.956L157.101 38.7211C156.37 35.5005 153.502 33.2116 150.202 33.2116H47.0638C43.0402 33.2116 39.4903 35.87 38.3659 39.733L33.2179 57.3456C32.6557 59.2812 32.2461 61.2569 32.0052 63.2486L29.5797 83.4393C29.1299 87.1819 32.0533 90.4747 35.82 90.4747H148.7C152.627 90.4747 156.024 87.728 156.852 83.889L161.502 62.2608C161.807 60.8392 161.799 59.3695 161.478 57.948L161.47 57.956Z" fill="#093372"/>
<path d="M103.267 63.7865V90.4906H105.676V33.2194H103.267V61.3771H32.2863C32.1739 62.0036 32.0776 62.63 32.0053 63.2645L31.941 63.7865H103.267Z" fill="#2662C7"/>
<path d="M49.714 53.5457C53.0185 53.5457 55.6975 50.8669 55.6975 47.5624C55.6975 44.2579 53.0185 41.5791 49.714 41.5791C46.4095 41.5791 43.7307 44.2579 43.7307 47.5624C43.7307 50.8669 46.4095 53.5457 49.714 53.5457Z" fill="#FB9257"/>
<path d="M69.4547 53.5457C72.7592 53.5457 75.4379 50.8669 75.4379 47.5624C75.4379 44.2579 72.7592 41.5791 69.4547 41.5791C66.1502 41.5791 63.4714 44.2579 63.4714 47.5624C63.4714 50.8669 66.1502 53.5457 69.4547 53.5457Z" fill="#FACD5F"/>
<path d="M69.4547 82C72.7592 82 75.4379 79.3212 75.4379 76.0167C75.4379 72.7122 72.7592 70.0334 69.4547 70.0334C66.1502 70.0334 63.4714 72.7122 63.4714 76.0167C63.4714 79.3212 66.1502 82 69.4547 82Z" fill="#FB985E"/>
<path d="M90.3436 53.5457C93.6481 53.5457 96.3269 50.8669 96.3269 47.5624C96.3269 44.2579 93.6481 41.5791 90.3436 41.5791C87.0391 41.5791 84.3603 44.2579 84.3603 47.5624C84.3603 50.8669 87.0391 53.5457 90.3436 53.5457Z" fill="#FCEB8A"/>
<path d="M90.3436 82C93.6481 82 96.3269 79.3212 96.3269 76.0167C96.3269 72.7122 93.6481 70.0334 90.3436 70.0334C87.0391 70.0334 84.3603 72.7122 84.3603 76.0167C84.3603 79.3212 87.0391 82 90.3436 82Z" fill="#88E5EB"/>
<path d="M42.7984 71.995H53.3916C55.6002 71.995 57.3992 73.786 57.3992 76.0027V77.1431C57.3992 79.3517 55.6082 81.1507 53.3916 81.1507H42.7984C40.2765 81.1507 38.2206 79.1027 38.2206 76.5729C38.2206 74.051 40.2685 71.995 42.7984 71.995Z" fill="#84ACEB"/>
<path d="M118.702 46.0624H115.008C113.256 46.0624 111.836 47.4827 111.836 49.2348V78.8301C111.836 80.5821 113.256 82.0024 115.008 82.0024H118.702C120.455 82.0024 121.875 80.5821 121.875 78.8301V49.2348C121.875 47.4827 120.455 46.0624 118.702 46.0624Z" fill="#0F86F4"/>
<path d="M132.171 62.124H128.476C126.724 62.124 125.304 63.5443 125.304 65.2963V78.829C125.304 80.5811 126.724 82.0014 128.476 82.0014H132.171C133.923 82.0014 135.343 80.5811 135.343 78.829V65.2963C135.343 63.5443 133.923 62.124 132.171 62.124Z" fill="#0DCBF0"/>
<path d="M145.639 42.0451H141.945C140.193 42.0451 138.773 43.4654 138.773 45.2174V78.8284C138.773 80.5804 140.193 82.0007 141.945 82.0007H145.639C147.391 82.0007 148.812 80.5804 148.812 78.8284V45.2174C148.812 43.4654 147.391 42.0451 145.639 42.0451Z" fill="#0DCBF0"/>
<path d="M207.906 54.3892L199.867 83.6793C198.759 87.711 201.794 91.6865 205.971 91.6865H231.759C234.699 91.6865 237.252 89.6626 237.919 86.8035L244.794 57.5134C245.725 53.5379 242.714 49.7391 238.634 49.7391H214.01C211.159 49.7391 208.661 51.6425 207.906 54.3973V54.3892Z" fill="#BCC7DB"/>
<path d="M238.706 61.6528H228.739C227.406 61.6528 226.33 60.5767 226.33 59.2435C226.33 57.9103 227.406 56.8341 228.739 56.8341H238.706C240.039 56.8341 241.116 57.9103 241.116 59.2435C241.116 60.5767 240.039 61.6528 238.706 61.6528Z" fill="#65748B"/>
<path d="M219.897 61.6528H211.609C210.276 61.6528 209.199 60.5767 209.199 59.2435C209.199 57.9103 210.276 56.8341 211.609 56.8341H219.897C221.23 56.8341 222.307 57.9103 222.307 59.2435C222.307 60.5767 221.23 61.6528 219.897 61.6528Z" fill="#65748B"/>
<path d="M236.626 72.0995H226.659C225.326 72.0995 224.25 71.0233 224.25 69.6901C224.25 68.3569 225.326 67.2807 226.659 67.2807H236.626C237.959 67.2807 239.035 68.3569 239.035 69.6901C239.035 71.0233 237.959 72.0995 236.626 72.0995Z" fill="#65748B"/>
<path d="M217.816 72.0995H209.528C208.195 72.0995 207.118 71.0233 207.118 69.6901C207.118 68.3569 208.195 67.2807 209.528 67.2807H217.816C219.149 67.2807 220.226 68.3569 220.226 69.6901C220.226 71.0233 219.149 72.0995 217.816 72.0995Z" fill="#65748B"/>
<path d="M232.514 84.1633H222.547C221.214 84.1633 220.138 83.0871 220.138 81.7539C220.138 80.4207 221.214 79.3445 222.547 79.3445H232.514C233.847 79.3445 234.923 80.4207 234.923 81.7539C234.923 83.0871 233.847 84.1633 232.514 84.1633Z" fill="#65748B"/>
<path d="M213.704 84.1633H205.415C204.082 84.1633 203.006 83.0871 203.006 81.7539C203.006 80.4207 204.082 79.3445 205.415 79.3445H213.704C215.037 79.3445 216.113 80.4207 216.113 81.7539C216.113 83.0871 215.037 84.1633 213.704 84.1633Z" fill="#65748B"/>
</svg>
