<svg width="263" height="100" viewBox="0 0 263 100" fill="none" xmlns="http://www.w3.org/2000/svg">
<path d="M199.561 19.4541C185.466 -2.07775 174.046 0.0585691 163.372 0.0585691H38.2929C21.5156 0.0585691 5.13179 13.9527 0.00783108 18.7153V99.4699H263V23.9838H213.038C203.882 23.9838 201.754 22.4257 199.569 19.4622L199.561 19.4541Z" fill="#E2DEF5"/>
<path d="M190.285 8.09892C184.463 2.68583 179.09 0.846668 173.99 0.260383C166.416 7.64917 156.241 17.608 156.433 17.608C156.747 17.608 175.275 26.1372 175.275 26.1372L190.285 8.09892Z" fill="#ECE8F3"/>
<path d="M262.993 35.2272V99.4775H0V24.7785C5.58174 19.1003 12.7618 13.7274 19.9337 13.7274H150.297C161.116 13.7274 172.343 13.2214 180.808 26.7381C181.154 27.2922 181.531 27.8223 181.933 28.3363C185.451 32.7937 190.944 35.2272 196.622 35.2272H262.993Z" fill="#C6BFEA"/>
<path d="M187.426 60.8153C187.426 60.8153 176.295 36.1673 171.621 28.6259C166.938 21.0845 163.091 19.4221 153.108 19.4221H19.018C12.8982 19.4221 3.83896 29.5335 0 34.1675V99.4699H177.443L187.426 60.8073V60.8153Z" fill="#4B4C75"/>
<path d="M175.275 99.4782H178.616L196.687 35.2279H196.622C195.546 35.2279 194.47 35.1395 193.418 34.9628L175.275 99.4782Z" fill="#8984AF"/>
<path d="M16.1028 35.6131C12.818 42.4397 5.14002 59.6427 0 71.2158V77.159C4.81877 66.2846 14.4965 44.5279 18.2792 36.6572C22.1342 28.6339 26.7442 22.1045 28.736 19.4221H25.7484C23.4113 22.6828 19.5161 28.5215 16.1108 35.6131H16.1028Z" fill="#3A3E66"/>
<path d="M161.47 57.958L157.101 38.723C156.37 35.5025 153.502 33.2136 150.202 33.2136H47.0638C43.0402 33.2136 39.4903 35.8719 38.3659 39.735L33.2179 57.3476C32.6557 59.2831 32.2461 61.2588 32.0052 63.2506L29.5797 83.4413C29.1299 87.1838 32.0533 90.4767 35.82 90.4767H148.7C152.627 90.4767 156.024 87.73 156.852 83.891L161.502 62.2627C161.807 60.8412 161.799 59.3715 161.478 57.9499L161.47 57.958Z" fill="#262B4C"/>
<path d="M103.267 63.7885V90.4925H105.676V33.2214H103.267V61.3791H32.2863C32.1739 62.0055 32.0776 62.632 32.0053 63.2664L31.941 63.7885H103.267Z" fill="#2E355B"/>
<path d="M49.714 53.5487C53.0185 53.5487 55.6975 50.8699 55.6975 47.5654C55.6975 44.2609 53.0185 41.5821 49.714 41.5821C46.4095 41.5821 43.7307 44.2609 43.7307 47.5654C43.7307 50.8699 46.4095 53.5487 49.714 53.5487Z" fill="#8264CF"/>
<path d="M69.4552 53.5487C72.7597 53.5487 75.4384 50.8699 75.4384 47.5654C75.4384 44.2609 72.7597 41.5821 69.4552 41.5821C66.1507 41.5821 63.4719 44.2609 63.4719 47.5654C63.4719 50.8699 66.1507 53.5487 69.4552 53.5487Z" fill="#C4AFDF"/>
<path d="M69.4552 82.0029C72.7597 82.0029 75.4384 79.3241 75.4384 76.0196C75.4384 72.7151 72.7597 70.0363 69.4552 70.0363C66.1507 70.0363 63.4719 72.7151 63.4719 76.0196C63.4719 79.3241 66.1507 82.0029 69.4552 82.0029Z" fill="#A177D6"/>
<path d="M90.3436 53.5487C93.6481 53.5487 96.3269 50.8699 96.3269 47.5654C96.3269 44.2609 93.6481 41.5821 90.3436 41.5821C87.0391 41.5821 84.3603 44.2609 84.3603 47.5654C84.3603 50.8699 87.0391 53.5487 90.3436 53.5487Z" fill="#FBDB57"/>
<path d="M90.3436 82.0029C93.6481 82.0029 96.3269 79.3241 96.3269 76.0196C96.3269 72.7151 93.6481 70.0363 90.3436 70.0363C87.0391 70.0363 84.3603 72.7151 84.3603 76.0196C84.3603 79.3241 87.0391 82.0029 90.3436 82.0029Z" fill="#BFB3EC"/>
<path d="M42.7984 71.995H53.3916C55.6002 71.995 57.3992 73.786 57.3992 76.0027V77.1431C57.3992 79.3517 55.6082 81.1507 53.3916 81.1507H42.7984C40.2765 81.1507 38.2206 79.1027 38.2206 76.5729C38.2206 74.051 40.2685 71.995 42.7984 71.995Z" fill="#897FB9"/>
<path d="M118.702 46.0634H115.008C113.256 46.0634 111.836 47.4837 111.836 49.2358V78.8311C111.836 80.5831 113.256 82.0034 115.008 82.0034H118.702C120.455 82.0034 121.875 80.5831 121.875 78.8311V49.2358C121.875 47.4837 120.455 46.0634 118.702 46.0634Z" fill="#595BAB"/>
<path d="M132.171 62.1259H128.476C126.724 62.1259 125.304 63.5462 125.304 65.2983V78.831C125.304 80.583 126.724 82.0034 128.476 82.0034H132.171C133.923 82.0034 135.343 80.583 135.343 78.831V65.2983C135.343 63.5462 133.923 62.1259 132.171 62.1259Z" fill="#7689D6"/>
<path d="M145.639 42.048H141.945C140.193 42.048 138.773 43.4683 138.773 45.2204V78.8313C138.773 80.5834 140.193 82.0037 141.945 82.0037H145.639C147.391 82.0037 148.812 80.5834 148.812 78.8313V45.2204C148.812 43.4683 147.391 42.048 145.639 42.048Z" fill="#7689D6"/>
<path d="M207.906 54.3912L199.867 83.6813C198.759 87.713 201.794 91.6885 205.971 91.6885H231.759C234.699 91.6885 237.252 89.6646 237.919 86.8055L244.794 57.5154C245.725 53.5399 242.714 49.7411 238.634 49.7411H214.01C211.159 49.7411 208.661 51.6445 207.906 54.3992V54.3912Z" fill="#807BAB"/>
<path d="M238.706 61.6509H228.739C227.406 61.6509 226.33 60.5747 226.33 59.2415C226.33 57.9083 227.406 56.8321 228.739 56.8321H238.706C240.039 56.8321 241.116 57.9083 241.116 59.2415C241.116 60.5747 240.039 61.6509 238.706 61.6509Z" fill="#63608D"/>
<path d="M219.897 61.6509H211.609C210.276 61.6509 209.199 60.5747 209.199 59.2415C209.199 57.9083 210.276 56.8321 211.609 56.8321H219.897C221.23 56.8321 222.307 57.9083 222.307 59.2415C222.307 60.5747 221.23 61.6509 219.897 61.6509Z" fill="#63608D"/>
<path d="M236.626 72.0995H226.659C225.326 72.0995 224.25 71.0233 224.25 69.6901C224.25 68.3569 225.326 67.2807 226.659 67.2807H236.626C237.959 67.2807 239.035 68.3569 239.035 69.6901C239.035 71.0233 237.959 72.0995 236.626 72.0995Z" fill="#63608D"/>
<path d="M217.816 72.0995H209.528C208.195 72.0995 207.118 71.0233 207.118 69.6901C207.118 68.3569 208.195 67.2807 209.528 67.2807H217.816C219.149 67.2807 220.226 68.3569 220.226 69.6901C220.226 71.0233 219.149 72.0995 217.816 72.0995Z" fill="#63608D"/>
<path d="M232.514 84.1623H222.547C221.214 84.1623 220.138 83.0861 220.138 81.7529C220.138 80.4197 221.214 79.3435 222.547 79.3435H232.514C233.847 79.3435 234.923 80.4197 234.923 81.7529C234.923 83.0861 233.847 84.1623 232.514 84.1623Z" fill="#63608D"/>
<path d="M213.704 84.1623H205.415C204.082 84.1623 203.006 83.0861 203.006 81.7529C203.006 80.4197 204.082 79.3435 205.415 79.3435H213.704C215.037 79.3435 216.113 80.4197 216.113 81.7529C216.113 83.0861 215.037 84.1623 213.704 84.1623Z" fill="#63608D"/>
</svg>
