<svg width="263" height="100" viewBox="0 0 263 100" fill="none" xmlns="http://www.w3.org/2000/svg">
<path d="M63.433 19.4542C77.5284 -2.07033 88.9492 0.0580211 99.6311 0.0580211C110.313 0.0580211 204.467 0.0580211 224.714 0.0580211C241.492 0.0580211 257.876 13.9526 263 18.7153V99.4723H0V23.9839C0 23.9839 40.8082 23.9839 49.9642 23.9839C59.1201 23.9839 61.2485 22.4258 63.433 19.4622V19.4542Z" fill="#DAE6F9"/>
<path d="M83.8973 1.31958C79.761 2.61265 75.424 5.13455 70.8058 9.97756L91.0614 32.1285L105.47 17.3666L83.8973 1.31958Z" fill="#E9F0FC"/>
<path d="M0 35.2292V99.4814H263V24.7802C257.419 19.1019 250.238 13.7288 243.066 13.7288H112.698C101.88 13.7288 90.6519 13.2228 82.1866 26.7399C81.8413 27.294 81.4638 27.8241 81.0622 28.3381C77.5444 32.7956 72.0509 35.2292 66.3726 35.2292H0Z" fill="#87AEEC"/>
<path d="M75.5683 60.8161C75.5683 60.8161 86.7 36.1674 91.3744 28.6258C96.0567 21.0842 99.9038 19.4217 109.887 19.4217C119.87 19.4217 236.046 19.4217 243.981 19.4217C250.101 19.4217 259.161 29.5334 263 34.1675V99.4719H85.5515L75.5683 60.8081V60.8161Z" fill="#296DD0"/>
<path d="M174.541 63.9151C171.425 40.7602 157.555 24.8096 131.5 25.5405C114.883 26.0063 92.8606 34.3109 91.1258 62.4936C89.9933 80.95 103.43 93.2061 112.835 99.4707H153.017C160.687 94.4912 176.935 81.6969 174.541 63.9151Z" fill="#A4DDEC"/>
<path d="M159.996 94.2833L133.042 62.1492L93.1176 51.395C92.0735 54.7039 91.3828 58.3824 91.1258 62.5026C89.9933 80.959 103.43 93.2151 112.835 99.4797H153.017C154.944 98.2268 157.418 96.484 159.996 94.2833Z" fill="#4C81D5"/>
<path d="M92.4594 53.7399L133.043 62.1489L131.212 25.5653C116.506 26.0552 97.7281 32.7054 92.4594 53.7399Z" fill="#64C7F2"/>
<path d="M133.043 99.4716C153.589 99.4716 170.245 83.4881 170.245 63.7715C170.245 44.0548 153.589 28.0713 133.043 28.0713C112.496 28.0713 95.8406 44.0548 95.8406 63.7715C95.8406 83.4881 112.496 99.4716 133.043 99.4716Z" fill="#0A4699"/>
<path d="M133.043 94.2438C151.442 94.2438 166.357 80.3387 166.357 63.1859C166.357 46.0331 151.442 32.128 133.043 32.128C114.643 32.128 99.7279 46.0331 99.7279 63.1859C99.7279 80.3387 114.643 94.2438 133.043 94.2438Z" fill="#1FC3F0"/>
<path d="M133.315 62.503L133.532 32.1438C133.371 32.1438 133.211 32.1358 133.042 32.1358C124.039 32.1358 115.871 35.4689 109.879 40.8821L133.315 62.511V62.503Z" fill="#26D1F5"/>
<path d="M133.147 32.128V62.1257L154.896 39.7499C149.074 35.0273 141.468 32.1521 133.147 32.128Z" fill="#3AE4FA"/>
<path d="M133.042 62.1402L154.848 39.7161C153.531 38.656 152.133 37.6842 150.647 36.8248L133.042 62.1482V62.1402Z" fill="#86EDFE"/>
<path d="M87.7198 99.4802H84.3787L66.3077 35.2279H66.3721C67.4483 35.2279 68.5245 35.1396 69.5766 34.9629L87.7198 99.4802Z" fill="#6495DD"/>
<path d="M156.294 62.5438H166.341C166.341 62.2787 166.333 62.0057 166.317 61.7406H156.286C156.165 55.6848 153.346 50.2314 148.897 46.3763L155.105 39.9189C154.896 39.7503 154.687 39.5816 154.479 39.413L148.278 45.8542C144.319 42.6577 139.195 40.69 133.581 40.5695V32.1284C133.404 32.1284 133.219 32.1123 133.042 32.1123C132.954 32.1123 132.866 32.1123 132.777 32.1123V40.5534C126.569 40.6177 120.939 42.9468 116.803 46.6976L110.129 40.6338C109.928 40.8104 109.719 40.9871 109.526 41.1719L116.216 47.2517C112.329 51.0346 109.904 56.1185 109.791 61.7245H99.7598C99.7438 61.9896 99.7437 62.2627 99.7357 62.5277H109.783C109.904 68.6558 112.787 74.1574 117.325 78.0205L110.024 85.6103C110.225 85.787 110.418 85.9717 110.626 86.1404L117.951 78.5265C121.951 81.699 127.123 83.6346 132.769 83.6908V94.2121C132.858 94.2121 132.946 94.2121 133.034 94.2121C133.219 94.2121 133.396 94.204 133.573 94.196V83.6747C139.741 83.5462 145.323 81.1769 149.411 77.4101L157.209 84.502C157.402 84.3172 157.595 84.1245 157.78 83.9317L149.989 76.8479C153.796 73.0811 156.165 68.0454 156.278 62.5036L156.294 62.5438ZM149.411 76.35L142.255 69.8444C144.15 67.8928 145.331 65.3468 145.435 62.5518H155.499C155.386 67.8847 153.097 72.7277 149.419 76.35H149.411ZM121.461 62.5438H132.239L125.115 69.9488C122.955 68.0775 121.581 65.4592 121.461 62.5438ZM144.624 61.7406H134.127L141.122 54.464C143.194 56.3274 144.511 58.8894 144.624 61.7406ZM133.581 61.1463V51.4442C136.207 51.5566 138.616 52.4722 140.504 53.942L133.581 61.1382V61.1463ZM132.143 61.7406H121.461C121.565 59.0822 122.722 56.6727 124.561 54.8496L132.143 61.7406ZM125.156 54.3034C127.171 52.5766 129.838 51.4924 132.785 51.4362V61.2346L125.156 54.3034ZM132.777 63.1381V72.8482C130.111 72.792 127.669 71.9085 125.734 70.4629L132.777 63.1381ZM133.581 63.0497L141.074 69.8605C139.106 71.6033 136.48 72.7117 133.581 72.8402V63.0497ZM134.223 62.5438H144.632C144.528 65.1379 143.427 67.4912 141.66 69.2983L134.223 62.5438ZM155.491 61.7406H145.427C145.315 58.6645 143.901 55.8937 141.676 53.8858L148.343 46.9546C152.639 50.6651 155.37 55.9097 155.491 61.7406ZM147.724 46.4486L141.066 53.3718C139.026 51.7655 136.432 50.7615 133.581 50.6491V41.3887C138.978 41.5092 143.909 43.3966 147.724 46.4486ZM132.777 41.3807V50.641C129.597 50.7053 126.714 51.8779 124.553 53.7733L117.397 47.2678C121.389 43.6777 126.802 41.4449 132.777 41.3807ZM116.811 47.8139L123.967 54.3195C121.999 56.2872 120.762 58.8814 120.658 61.7486H110.594C110.707 56.3515 113.052 51.4603 116.811 47.8139ZM110.594 62.5438H120.658C120.778 65.6841 122.248 68.5112 124.561 70.5271L117.895 77.4583C113.51 73.7397 110.723 68.4389 110.602 62.5438H110.594ZM118.513 77.9723L125.172 71.0491C127.252 72.6394 129.894 73.6032 132.777 73.6594V82.9197C127.348 82.8635 122.369 81.0082 118.513 77.9804V77.9723ZM133.581 82.9037V73.6433C136.721 73.5148 139.556 72.3101 141.676 70.4066L148.832 76.9041C144.889 80.5103 139.524 82.7752 133.589 82.9037H133.581Z" fill="#00ABD3"/>
<path d="M174.196 34.7616L183.641 84.1876C184.596 89.1832 188.966 92.7974 194.058 92.7974H243.331C248.792 92.7974 252.776 87.6251 251.379 82.3403L238.769 34.7134C237.572 30.1997 233.492 27.0433 228.826 27.0272L180.798 26.8184C176.589 26.8023 173.417 30.6253 174.204 34.7616H174.196Z" fill="#175CC2"/>
<path d="M188.259 36.6992L189.688 44.4335C189.929 45.7507 191.078 46.6984 192.419 46.6984H205.028C206.787 46.6984 208.104 45.076 207.743 43.3493L206.105 35.6149C205.832 34.3299 204.699 33.4143 203.39 33.4143H190.981C189.246 33.4143 187.937 34.9884 188.251 36.6911L188.259 36.6992Z" fill="#FDCC35"/>
<path d="M210.45 36.6992L211.879 44.4335C212.12 45.7507 213.269 46.6984 214.61 46.6984H227.219C228.978 46.6984 230.295 45.076 229.934 43.3493L228.296 35.6149C228.023 34.3299 226.89 33.4143 225.581 33.4143H213.172C211.437 33.4143 210.128 34.9884 210.442 36.6911L210.45 36.6992Z" fill="#55B5FC"/>
<path d="M214.193 54.672L215.623 62.4064C215.864 63.7235 217.012 64.6713 218.353 64.6713H230.963C232.722 64.6713 234.039 63.0489 233.678 61.3221L232.039 53.5878C231.766 52.3027 230.634 51.3871 229.324 51.3871H216.916C215.181 51.3871 213.872 52.9613 214.185 54.664L214.193 54.672Z" fill="#FE9755"/>
<path d="M191.801 54.672L193.231 62.4064C193.472 63.7235 194.62 64.6713 195.962 64.6713H208.571C210.33 64.6713 211.647 63.0489 211.286 61.3221L209.647 53.5878C209.374 52.3027 208.242 51.3871 206.933 51.3871H194.524C192.789 51.3871 191.48 52.9613 191.793 54.664L191.801 54.672Z" fill="#4375C7"/>
<path d="M195.158 72.639L196.588 80.3734C196.829 81.6905 197.977 82.6383 199.318 82.6383H211.928C213.687 82.6383 215.004 81.0159 214.643 79.2891L213.004 71.5548C212.731 70.2697 211.599 69.3541 210.289 69.3541H197.881C196.146 69.3541 194.837 70.9283 195.15 72.631L195.158 72.639Z" fill="#87AEE9"/>
<path d="M218.289 73.0345L219.718 80.7689C219.959 82.086 221.108 83.0337 222.449 83.0337H235.059C236.818 83.0337 238.135 81.4114 237.773 79.6846L236.135 71.9502C235.862 70.6652 234.729 69.7496 233.42 69.7496H221.011C219.277 69.7496 217.968 71.3238 218.281 73.0265L218.289 73.0345Z" fill="#86AFEB"/>
<path d="M133.147 64.8004C134.624 64.8004 135.822 63.603 135.822 62.1259C135.822 60.6488 134.624 59.4514 133.147 59.4514C131.67 59.4514 130.473 60.6488 130.473 62.1259C130.473 63.603 131.67 64.8004 133.147 64.8004Z" fill="#DCFDFF"/>
<path d="M41.2016 63.2678L38.768 54.393C38.013 51.6462 35.5152 49.7347 32.664 49.7347H13.6614C9.5814 49.7347 6.56959 53.5417 7.50124 57.5092L9.0674 64.1674C9.38063 65.5086 10.1115 66.7455 11.2359 67.5326C11.8784 67.9824 12.5611 68.2876 13.2518 68.3116C15.2436 68.3759 28.4314 68.3598 37.3464 68.3357C39.9888 68.3357 41.9083 65.8058 41.2016 63.2598V63.2678Z" fill="#417ACF"/>
<path d="M46.8 83.6837L44.8965 76.7444C44.7439 76.1822 44.4708 75.6522 44.0692 75.2265C43.2259 74.335 42.2702 73.7005 41.2582 73.7005H15.9509C15.9509 73.7005 15.9027 73.7005 15.8786 73.7005C13.5173 73.7246 11.8307 76.0216 12.3769 78.3186L14.3687 86.8079C15.0433 89.6672 17.5893 91.6911 20.5288 91.6911H40.696C44.8724 91.6911 47.9083 87.7155 46.8 83.6837Z" fill="#497FD4"/>
<path d="M26.1503 91.6911H34.206C33.9891 88.093 33.194 78.3748 30.6962 73.7005H23.3393C24.2549 76.6641 26.5278 84.8242 26.1503 91.6911Z" fill="#194686"/>
<path d="M41.0489 91.6672L37.6997 73.6927H35.6677L39.1454 91.6833H40.6955C40.8159 91.6833 40.9284 91.6672 41.0408 91.6592L41.0489 91.6672Z" fill="#386EC1"/>
<path d="M21.1069 91.6911H23.0104L19.6613 73.7005H17.6293L21.1069 91.6911Z" fill="#386EC1"/>
<path d="M36.0458 64.632L26.1991 79.3297C26.1991 79.3297 25.2595 81.3376 28.1749 83.4178C31.0904 85.4979 33.291 82.5825 33.291 82.5825L42.8003 68.961L36.0378 64.624L36.0458 64.632Z" fill="#245495"/>
<path d="M38.5755 66.2462L36.0536 64.6318L26.2069 79.3295C26.2069 79.3295 25.6768 80.462 26.6486 81.9077C27.5321 81.5864 28.8011 80.9358 30.0942 79.6106C31.821 77.8276 36.3106 70.1977 38.5835 66.2542L38.5755 66.2462Z" fill="#4175BD"/>
<path d="M44.6152 70.4704C50.8651 70.4704 55.9316 65.4039 55.9316 59.154C55.9316 52.9041 50.8651 47.8376 44.6152 47.8376C38.3653 47.8376 33.2987 52.9041 33.2987 59.154C33.2987 65.4039 38.3653 70.4704 44.6152 70.4704Z" fill="#FCA758"/>
<path d="M51.45 55.8454C51.0565 55.8454 50.679 55.6526 50.4461 55.3073C49.7473 54.2551 48.7835 53.4118 47.6431 52.8576C47.0407 52.5685 46.7917 51.8457 47.0808 51.2513C47.37 50.649 48.0928 50.4 48.6872 50.6891C50.2131 51.428 51.5143 52.5605 52.4539 53.974C52.8234 54.5282 52.6708 55.2751 52.1166 55.6446C51.9158 55.7811 51.6829 55.8454 51.45 55.8454Z" fill="#FFE0B5"/>
<path d="M45.4665 64.0852C39.8123 64.0852 35.146 59.9409 34.2946 54.5197C33.6602 55.9332 33.2987 57.4994 33.2987 59.1538C33.2987 65.4024 38.3667 70.4703 44.6152 70.4703C50.8637 70.4703 55.9316 65.4024 55.9316 59.1538C55.9316 58.5515 55.8754 57.9732 55.779 57.3949C54.004 61.3384 50.0606 64.0852 45.4585 64.0852H45.4665Z" fill="#F68544"/>
</svg>
