<svg width="263" height="100" viewBox="0 0 263 100" fill="none" xmlns="http://www.w3.org/2000/svg">
<path d="M199.567 19.4542C185.472 -2.07033 174.051 0.0580211 163.369 0.0580211H38.2863C21.5085 0.0580211 5.12411 13.9526 0 18.7153V99.4723H263V23.9839H213.036C203.88 23.9839 201.752 22.4258 199.567 19.4622V19.4542Z" fill="#FDF6EC"/>
<path d="M190.291 8.0972C184.468 2.68396 179.095 0.844735 173.995 0.258433C166.421 7.64744 156.245 17.6065 156.438 17.6065C156.751 17.6065 175.28 26.136 175.28 26.136L190.291 8.0972Z" fill="#FFFCF8"/>
<path d="M263 35.2272V99.4795H0V24.7782C5.58191 19.0999 12.7621 13.7268 19.9342 13.7268H150.302C161.12 13.7268 172.349 13.2208 180.814 26.7379C181.159 27.2921 181.537 27.8222 181.938 28.3362C185.456 32.7937 190.95 35.2272 196.628 35.2272H263Z" fill="#ECE3D8"/>
<path d="M187.432 60.8161C187.432 60.8161 176.3 36.1674 171.626 28.6258C166.943 21.0842 163.096 19.4217 153.113 19.4217H19.0187C12.8987 19.4217 3.83907 29.5334 0 34.1675V99.4719H177.449L187.432 60.8081V60.8161Z" fill="#457F94"/>
<path d="M175.28 99.4792H178.622L196.693 35.227H196.628C195.552 35.227 194.476 35.1386 193.424 34.9619L175.28 99.4792Z" fill="#DFD5C9"/>
<path d="M16.1033 35.6132C12.8184 42.44 5.14018 59.6435 0 71.217V77.1603C4.81892 66.2856 14.4969 44.5282 18.2798 36.6573C22.1349 28.6338 26.745 22.1042 28.7368 19.4217H25.7491C23.412 22.6825 19.5167 28.5214 16.1113 35.6132H16.1033Z" fill="#296B7E"/>
<path d="M161.474 57.9577L157.105 38.7222C156.374 35.5016 153.507 33.2126 150.206 33.2126H47.0652C43.0414 33.2126 39.4915 35.871 38.3671 39.7342L33.2189 57.3473C32.6567 59.2829 32.2471 61.2587 32.0061 63.2505L29.5806 83.4418C29.1308 87.1845 32.0543 90.4774 35.8211 90.4774H148.704C152.632 90.4774 156.029 87.7306 156.856 83.8915L161.506 62.2626C161.812 60.8411 161.804 59.3713 161.482 57.9497L161.474 57.9577Z" fill="#034848"/>
<path d="M103.27 63.7884V90.4933H105.679V33.2204H103.27V61.379H32.2873C32.1748 62.0054 32.0785 62.6319 32.0062 63.2664L31.942 63.7884H103.27Z" fill="#003D3D"/>
<path d="M49.7156 53.5483C53.0202 53.5483 55.699 50.8694 55.699 47.5648C55.699 44.2602 53.0202 41.5813 49.7156 41.5813C46.411 41.5813 43.732 44.2602 43.732 47.5648C43.732 50.8694 46.411 53.5483 49.7156 53.5483Z" fill="#F97430"/>
<path d="M69.4572 53.5483C72.7618 53.5483 75.4408 50.8694 75.4408 47.5648C75.4408 44.2602 72.7618 41.5813 69.4572 41.5813C66.1526 41.5813 63.4738 44.2602 63.4738 47.5648C63.4738 50.8694 66.1526 53.5483 69.4572 53.5483Z" fill="#FDCA23"/>
<path d="M69.4572 82.0034C72.7618 82.0034 75.4408 79.3245 75.4408 76.0199C75.4408 72.7153 72.7618 70.0364 69.4572 70.0364C66.1526 70.0364 63.4738 72.7153 63.4738 76.0199C63.4738 79.3245 66.1526 82.0034 69.4572 82.0034Z" fill="#FD9E40"/>
<path d="M90.3473 53.5483C93.6518 53.5483 96.3307 50.8694 96.3307 47.5648C96.3307 44.2602 93.6518 41.5813 90.3473 41.5813C87.0427 41.5813 84.3638 44.2602 84.3638 47.5648C84.3638 50.8694 87.0427 53.5483 90.3473 53.5483Z" fill="#FED429"/>
<path d="M90.3473 82.0034C93.6518 82.0034 96.3307 79.3245 96.3307 76.0199C96.3307 72.7153 93.6518 70.0364 90.3473 70.0364C87.0427 70.0364 84.3638 72.7153 84.3638 76.0199C84.3638 79.3245 87.0427 82.0034 90.3473 82.0034Z" fill="#23D68D"/>
<path d="M42.8007 71.9962H53.3943C55.6029 71.9962 57.402 73.7872 57.402 76.0039V77.1444C57.402 79.3531 55.611 81.1521 53.3943 81.1521H42.8007C40.2788 81.1521 38.2227 79.1041 38.2227 76.5742C38.2227 74.0523 40.2708 71.9962 42.8007 71.9962Z" fill="#9BACB0"/>
<path d="M118.706 46.0628H115.011C113.259 46.0628 111.839 47.4832 111.839 49.2353V78.8314C111.839 80.5835 113.259 82.0039 115.011 82.0039H118.706C120.458 82.0039 121.878 80.5835 121.878 78.8314V49.2353C121.878 47.4832 120.458 46.0628 118.706 46.0628Z" fill="#10BDA1"/>
<path d="M132.175 62.1258H128.48C126.728 62.1258 125.308 63.5462 125.308 65.2983V78.8314C125.308 80.5835 126.728 82.0038 128.48 82.0038H132.175C133.927 82.0038 135.347 80.5835 135.347 78.8314V65.2983C135.347 63.5462 133.927 62.1258 132.175 62.1258Z" fill="#10BDA1"/>
<path d="M145.645 42.0473H141.95C140.198 42.0473 138.778 43.4677 138.778 45.2198V78.8317C138.778 80.5838 140.198 82.0042 141.95 82.0042H145.645C147.397 82.0042 148.817 80.5838 148.817 78.8317V45.2198C148.817 43.4677 147.397 42.0473 145.645 42.0473Z" fill="#10BDA1"/>
<path d="M207.912 54.3908L199.873 83.6818C198.764 87.7137 201.8 91.6893 205.977 91.6893H231.766C234.705 91.6893 237.26 89.6653 237.926 86.8061L244.801 57.5151C245.733 53.5395 242.721 49.7406 238.641 49.7406H214.016C211.165 49.7406 208.667 51.6441 207.912 54.3989V54.3908Z" fill="#C7C4C3"/>
<path d="M238.713 61.6517H228.746C227.413 61.6517 226.337 60.5755 226.337 59.2423C226.337 57.9091 227.413 56.8328 228.746 56.8328H238.713C240.046 56.8328 241.123 57.9091 241.123 59.2423C241.123 60.5755 240.046 61.6517 238.713 61.6517Z" fill="#535E68"/>
<path d="M219.904 61.6517H211.615C210.282 61.6517 209.206 60.5755 209.206 59.2423C209.206 57.9091 210.282 56.8328 211.615 56.8328H219.904C221.237 56.8328 222.313 57.9091 222.313 59.2423C222.313 60.5755 221.237 61.6517 219.904 61.6517Z" fill="#535E68"/>
<path d="M236.633 72.0997H226.666C225.333 72.0997 224.257 71.0235 224.257 69.6902C224.257 68.357 225.333 67.2808 226.666 67.2808H236.633C237.966 67.2808 239.043 68.357 239.043 69.6902C239.043 71.0235 237.966 72.0997 236.633 72.0997Z" fill="#535E68"/>
<path d="M217.823 72.0997H209.535C208.202 72.0997 207.126 71.0235 207.126 69.6902C207.126 68.357 208.202 67.2808 209.535 67.2808H217.823C219.157 67.2808 220.233 68.357 220.233 69.6902C220.233 71.0235 219.157 72.0997 217.823 72.0997Z" fill="#535E68"/>
<path d="M232.521 84.1629H222.554C221.22 84.1629 220.144 83.0866 220.144 81.7534C220.144 80.4202 221.22 79.3439 222.554 79.3439H232.521C233.854 79.3439 234.93 80.4202 234.93 81.7534C234.93 83.0866 233.854 84.1629 232.521 84.1629Z" fill="#535E68"/>
<path d="M213.71 84.1629H205.422C204.088 84.1629 203.012 83.0866 203.012 81.7534C203.012 80.4202 204.088 79.3439 205.422 79.3439H213.71C215.043 79.3439 216.12 80.4202 216.12 81.7534C216.12 83.0866 215.043 84.1629 213.71 84.1629Z" fill="#535E68"/>
</svg>
