<svg width="263" height="100" viewBox="0 0 263 100" fill="none" xmlns="http://www.w3.org/2000/svg">
<path d="M199.567 19.4542C185.472 -2.07033 174.051 0.0580211 163.369 0.0580211H38.2863C21.5084 0.0580211 5.12411 13.9526 0 18.7153V99.4723H263V23.9839H213.036C203.88 23.9839 201.752 22.4258 199.567 19.4622V19.4542Z" fill="#DAE6F9"/>
<path d="M190.291 8.0972C184.468 2.68396 179.095 0.844735 173.995 0.258433C166.421 7.64744 156.245 17.6065 156.438 17.6065C156.751 17.6065 175.28 26.136 175.28 26.136L190.291 8.0972Z" fill="#E9F0FC"/>
<path d="M263 35.2292V99.4814H0V24.7802C5.58191 19.1019 12.7621 13.7288 19.9343 13.7288H150.302C161.12 13.7288 172.349 13.2228 180.814 26.7399C181.159 27.294 181.537 27.8241 181.938 28.3381C185.456 32.7956 190.95 35.2292 196.628 35.2292H263Z" fill="#87AEEC"/>
<path d="M187.432 60.8161C187.432 60.8161 176.3 36.1674 171.626 28.6258C166.943 21.0842 163.096 19.4217 153.113 19.4217H19.0187C12.8986 19.4217 3.83907 29.5334 0 34.1675V99.4719H177.449L187.432 60.8081V60.8161Z" fill="#296DD0"/>
<path d="M175.28 99.4802H178.622L196.693 35.2279H196.628C195.552 35.2279 194.476 35.1396 193.424 34.9629L175.28 99.4802Z" fill="#6495DD"/>
<path d="M16.1032 35.6132C12.8183 42.44 5.14018 59.6435 0 71.217V77.1603C4.81892 66.2856 14.4969 44.5282 18.2798 36.6573C22.1349 28.6338 26.745 22.1042 28.7368 19.4217H25.7491C23.4119 22.6825 19.5166 28.5214 16.1112 35.6132H16.1032Z" fill="#165BBA"/>
<path d="M161.474 57.9558L157.105 38.7203C156.374 35.4996 153.507 33.2106 150.206 33.2106H47.0652C43.0414 33.2106 39.4915 35.8691 38.3671 39.7322L33.2189 57.3454C32.6567 59.281 32.247 61.2567 32.0061 63.2486L29.5806 83.4398C29.1308 87.1825 32.0543 90.4754 35.8211 90.4754H148.704C152.632 90.4754 156.029 87.7287 156.856 83.8896L161.506 62.2607C161.812 60.8391 161.804 59.3693 161.482 57.9478L161.474 57.9558Z" fill="#0E47A3"/>
<path d="M103.27 63.7865V90.4913H105.679V33.2185H103.27V61.377H32.2873C32.1749 62.0035 32.0785 62.6299 32.0062 63.2644L31.942 63.7865H103.27Z" fill="#1D5FBC"/>
<path d="M49.7155 53.5473C53.0201 53.5473 55.699 50.8684 55.699 47.5639C55.699 44.2593 53.0201 41.5804 49.7155 41.5804C46.4109 41.5804 43.732 44.2593 43.732 47.5639C43.732 50.8684 46.4109 53.5473 49.7155 53.5473Z" fill="#FB9257"/>
<path d="M69.4573 53.5473C72.7619 53.5473 75.4408 50.8684 75.4408 47.5639C75.4408 44.2593 72.7619 41.5804 69.4573 41.5804C66.1527 41.5804 63.4738 44.2593 63.4738 47.5639C63.4738 50.8684 66.1527 53.5473 69.4573 53.5473Z" fill="#FACD5F"/>
<path d="M69.4573 82.0024C72.7619 82.0024 75.4408 79.3235 75.4408 76.0189C75.4408 72.7143 72.7619 70.0354 69.4573 70.0354C66.1527 70.0354 63.4738 72.7143 63.4738 76.0189C63.4738 79.3235 66.1527 82.0024 69.4573 82.0024Z" fill="#FB985E"/>
<path d="M90.3463 53.5473C93.6509 53.5473 96.3298 50.8684 96.3298 47.5639C96.3298 44.2593 93.6509 41.5804 90.3463 41.5804C87.0417 41.5804 84.3628 44.2593 84.3628 47.5639C84.3628 50.8684 87.0417 53.5473 90.3463 53.5473Z" fill="#FCEB8A"/>
<path d="M90.3463 82.0024C93.6509 82.0024 96.3298 79.3235 96.3298 76.0189C96.3298 72.7143 93.6509 70.0354 90.3463 70.0354C87.0417 70.0354 84.3628 72.7143 84.3628 76.0189C84.3628 79.3235 87.0417 82.0024 90.3463 82.0024Z" fill="#88E5EB"/>
<path d="M42.7997 71.9952H53.3933C55.6019 71.9952 57.401 73.7863 57.401 76.003V77.1434C57.401 79.3521 55.61 81.1512 53.3933 81.1512H42.7997C40.2778 81.1512 38.2217 79.1031 38.2217 76.5732C38.2217 74.0513 40.2697 71.9952 42.7997 71.9952Z" fill="#84ACEB"/>
<path d="M118.706 46.0618H115.011C113.259 46.0618 111.839 47.4822 111.839 49.2343V78.8305C111.839 80.5826 113.259 82.0029 115.011 82.0029H118.706C120.458 82.0029 121.878 80.5826 121.878 78.8305V49.2343C121.878 47.4822 120.458 46.0618 118.706 46.0618Z" fill="#2B8FFD"/>
<path d="M132.175 62.1258H128.48C126.728 62.1258 125.308 63.5462 125.308 65.2983V78.8314C125.308 80.5835 126.728 82.0038 128.48 82.0038H132.175C133.927 82.0038 135.347 80.5835 135.347 78.8314V65.2983C135.347 63.5462 133.927 62.1258 132.175 62.1258Z" fill="#40C2F9"/>
<path d="M145.644 42.0463H141.949C140.197 42.0463 138.777 43.4667 138.777 45.2188V78.8307C138.777 80.5828 140.197 82.0032 141.949 82.0032H145.644C147.396 82.0032 148.816 80.5828 148.816 78.8307V45.2188C148.816 43.4667 147.396 42.0463 145.644 42.0463Z" fill="#3ACEFB"/>
<path d="M207.912 54.3908L199.873 83.6818C198.764 87.7137 201.8 91.6893 205.977 91.6893H231.766C234.706 91.6893 237.26 89.6653 237.926 86.8061L244.801 57.5151C245.733 53.5395 242.721 49.7406 238.641 49.7406H214.016C211.165 49.7406 208.667 51.6441 207.912 54.3989V54.3908Z" fill="#4F84D9"/>
<path d="M238.713 61.6508H228.746C227.413 61.6508 226.337 60.5745 226.337 59.2413C226.337 57.9081 227.413 56.8318 228.746 56.8318H238.713C240.047 56.8318 241.123 57.9081 241.123 59.2413C241.123 60.5745 240.047 61.6508 238.713 61.6508Z" fill="#21518F"/>
<path d="M219.904 61.6508H211.615C210.282 61.6508 209.206 60.5745 209.206 59.2413C209.206 57.9081 210.282 56.8318 211.615 56.8318H219.904C221.237 56.8318 222.313 57.9081 222.313 59.2413C222.313 60.5745 221.237 61.6508 219.904 61.6508Z" fill="#21518F"/>
<path d="M236.633 72.0997H226.666C225.333 72.0997 224.257 71.0235 224.257 69.6902C224.257 68.357 225.333 67.2808 226.666 67.2808H236.633C237.966 67.2808 239.043 68.357 239.043 69.6902C239.043 71.0235 237.966 72.0997 236.633 72.0997Z" fill="#21518F"/>
<path d="M217.823 72.0997H209.534C208.201 72.0997 207.125 71.0235 207.125 69.6902C207.125 68.357 208.201 67.2808 209.534 67.2808H217.823C219.156 67.2808 220.232 68.357 220.232 69.6902C220.232 71.0235 219.156 72.0997 217.823 72.0997Z" fill="#21518F"/>
<path d="M232.521 84.1638H222.554C221.22 84.1638 220.144 83.0876 220.144 81.7544C220.144 80.4211 221.22 79.3449 222.554 79.3449H232.521C233.854 79.3449 234.93 80.4211 234.93 81.7544C234.93 83.0876 233.854 84.1638 232.521 84.1638Z" fill="#21518F"/>
<path d="M213.71 84.1638H205.422C204.088 84.1638 203.012 83.0876 203.012 81.7544C203.012 80.4211 204.088 79.3449 205.422 79.3449H213.71C215.043 79.3449 216.12 80.4211 216.12 81.7544C216.12 83.0876 215.043 84.1638 213.71 84.1638Z" fill="#21518F"/>
</svg>
