<svg width="104" height="104" viewBox="0 0 104 104" fill="none" xmlns="http://www.w3.org/2000/svg">
<path d="M51.9896 0C56.2539 0 60.0792 2.37973 61.9605 6.179L71.7012 25.8844L93.4614 29.0365C97.6629 29.6418 101.112 32.5433 102.429 36.5929C103.746 40.6427 102.659 44.9845 99.6069 47.9695L83.8669 63.2912L87.5876 84.938C88.1519 88.1527 87.253 91.4508 85.1418 93.935C83.0098 96.4608 79.916 97.922 76.6344 97.922C74.8576 97.922 73.0599 97.4628 71.4504 96.6278L51.9896 86.4202L32.5497 96.6278C30.9402 97.4628 29.1426 97.922 27.3658 97.922C24.084 97.922 20.9904 96.4608 18.8582 93.935C16.747 91.4508 15.8482 88.1527 16.4126 84.938L20.1334 63.2912L4.39336 47.9695C1.34153 44.9845 0.254521 40.6427 1.57147 36.5929C2.88832 32.5433 6.33738 29.6418 10.5389 29.0365L32.2989 25.8844L42.0398 6.179C43.9211 2.37973 47.7464 0 51.9896 0Z" fill="#CD9D6F"/>
<path d="M87.7733 28.2127L71.7012 25.8845L61.9605 6.17895C60.0792 2.37983 56.2538 0 51.9896 0C47.7463 0 43.921 2.37983 42.0397 6.17895L32.299 25.8845L10.5388 29.0366C6.33738 29.6419 2.88827 32.5434 1.57147 36.5929C0.254522 40.6426 1.34153 44.9844 4.39331 47.9698L20.1334 63.2913L18.2631 74.1723L87.7733 28.2127Z" fill="#D6AA85"/>
<path d="M102.786 41.9652C102.741 42.2184 102.67 42.4654 102.607 42.7145C102.506 43.112 102.388 43.505 102.243 43.89C102.118 44.222 101.966 44.5438 101.809 44.8642C101.624 45.2398 101.435 45.6138 101.206 45.9699C101.107 46.123 101.009 46.2758 100.903 46.4246C100.516 46.9664 100.096 47.491 99.6067 47.9698L83.8667 63.2913V69.3691L99.6067 54.0473C100.096 53.5681 100.516 53.0444 100.903 52.5021C101.01 52.353 101.107 52.2016 101.206 52.0479C101.314 51.8789 101.441 51.7196 101.539 51.5464C101.65 51.3527 101.711 51.1401 101.809 50.9416C101.967 50.6204 102.118 50.3009 102.243 49.9678C102.294 49.8314 102.375 49.7061 102.421 49.5683C102.505 49.3151 102.541 49.05 102.607 48.7917C102.67 48.542 102.74 48.2967 102.786 48.043C102.804 47.9403 102.843 47.8428 102.859 47.7396C102.939 47.2052 102.979 46.6639 102.979 46.1193V40.041C102.979 40.6903 102.899 41.3316 102.786 41.9652Z" fill="#C2905B"/>
<path d="M20.1335 63.2913L4.3934 47.9698C2.19958 45.8236 1.021 42.9768 1.021 40.041V46.119C1.021 49.0545 2.19958 51.9016 4.3934 54.0473L20.1335 69.3691V63.2913Z" fill="#D39E72"/>
<path d="M87.388 89.4759C87.3082 89.796 87.2388 90.1184 87.1305 90.43C86.9579 90.9261 86.7317 91.4027 86.4886 91.8713C86.4162 92.0108 86.3673 92.1605 86.2887 92.2969C85.9584 92.8716 85.578 93.4216 85.1419 93.9348C83.0099 96.4604 79.9161 97.9216 76.6345 97.9216C74.8577 97.9216 73.06 97.4623 71.4505 96.6276L51.9897 86.4199L32.5499 96.6276C30.9404 97.4623 29.1427 97.9216 27.3659 97.9216C24.0842 97.9216 20.9905 96.4603 18.8585 93.9348C17.1614 91.9377 16.2476 89.415 16.2476 86.8322V92.9099C16.2476 95.4925 17.1614 98.0155 18.8585 100.012C20.9905 102.538 24.0843 104 27.3659 104C29.1427 104 30.9404 103.54 32.5499 102.705L51.9897 92.4977L71.4505 102.705C73.06 103.54 74.8577 104 76.6345 104C79.9162 104 83.0099 102.538 85.1419 100.012C85.5779 99.4997 85.9579 98.9503 86.2882 98.3759C86.2964 98.3614 86.3086 98.3492 86.3168 98.3347C86.3883 98.2092 86.4258 98.0691 86.4922 97.9409C86.7336 97.4749 86.9586 97.0025 87.1302 96.5086C87.1474 96.4596 87.1773 96.4153 87.1937 96.366C87.282 96.0998 87.3214 95.8208 87.3891 95.5492C87.4611 95.26 87.5481 94.9765 87.5963 94.6819C87.6046 94.6315 87.6244 94.5836 87.6319 94.5331C87.712 93.9978 87.7528 93.4552 87.7528 92.91V86.8322C87.7528 87.4282 87.6923 88.0193 87.5966 88.6031C87.5481 88.8991 87.4603 89.1853 87.388 89.4759Z" fill="#C2905B"/>
<path d="M51.9896 8.12895C53.1577 8.12895 54.1618 8.74843 54.6732 9.7813L64.414 29.4866L66.3073 33.3166L70.5358 33.9292L92.3022 37.0822C93.4439 37.2466 94.3396 38.0033 94.6982 39.1059C95.0576 40.2119 94.7751 41.3241 93.9366 42.1444L78.1966 57.4662L75.1304 60.4508L75.8553 64.6681L79.581 86.3432C79.7272 87.1768 79.4964 88.025 78.9299 88.6916C78.3391 89.3916 77.5023 89.793 76.6343 89.793C76.1856 89.793 75.6605 89.6541 75.2263 89.429L55.7655 79.2213L51.9875 77.2395L48.2104 79.223L28.8063 89.412C28.3395 89.6541 27.8144 89.793 27.3657 89.793C26.4977 89.793 25.6609 89.3916 25.0523 88.6706C24.5036 88.025 24.2727 87.1768 24.4239 86.3149L28.1448 64.6681L28.8696 60.4508L25.8034 57.4662L10.0771 42.1578C9.22488 41.3242 8.94226 40.212 9.30174 39.1065C9.66044 38.0034 10.5561 37.2467 11.704 37.0814L33.4641 33.9293L37.6925 33.3166L39.5859 29.4866L49.3243 9.78619C49.8382 8.74853 50.8347 8.12895 51.9896 8.12895ZM51.9896 0C47.7464 0 43.9211 2.37952 42.0398 6.17895L32.2989 25.8842L10.5389 29.0363C6.33738 29.6417 2.88832 32.5432 1.57147 36.5926C0.254521 40.6426 1.34153 44.9844 4.39336 47.9693L20.1334 63.2911L16.4126 84.9379C15.8482 88.1526 16.747 91.4508 18.8582 93.9349C20.9904 96.4608 24.084 97.922 27.3658 97.922C29.1426 97.922 30.9402 97.4627 32.5497 96.6278L51.9896 86.4201L71.4504 96.6278C73.0599 97.4628 74.8576 97.922 76.6344 97.922C79.9161 97.922 83.0098 96.4608 85.1418 93.9349C87.253 91.4508 88.1519 88.1526 87.5876 84.9379L83.8669 63.2911L99.6069 47.9693C102.659 44.9844 103.746 40.6426 102.429 36.5926C101.112 32.5432 97.6629 29.6417 93.4614 29.0363L71.7012 25.8842L61.9605 6.17895C60.0792 2.37952 56.2539 0 51.9896 0Z" fill="#E4AC79"/>
<path d="M27.5689 68.0192L28.1449 64.6681L28.8698 60.4508L25.8036 57.4662L10.0772 42.1577C9.22499 41.3242 8.94242 40.212 9.30195 39.1065C9.66059 38.0034 10.5563 37.2467 11.7042 37.0814L33.4644 33.9293L37.6928 33.3166L39.5862 29.4866L49.3246 9.78619C49.8384 8.74853 50.8347 8.12906 51.9896 8.12906C53.1577 8.12906 54.1618 8.74853 54.6732 9.78141L64.414 29.4867L66.3073 33.3167L70.5358 33.9293L77.583 34.95L87.7733 28.2125L71.7012 25.8842L61.9604 6.179C60.0792 2.37952 56.2538 0 51.9896 0C47.7463 0 43.921 2.37952 42.0397 6.17895L32.299 25.8842L10.5388 29.0363C6.33738 29.6417 2.88827 32.5432 1.57147 36.5926C0.254522 40.6426 1.34153 44.9844 4.39331 47.9693L20.1334 63.2911L18.2631 74.1721L27.5689 68.0192Z" fill="#EBB88B"/>
</svg>
