<svg width="32" height="32" viewBox="0 0 32 32" fill="none" xmlns="http://www.w3.org/2000/svg">
<path d="M14.963 18.4179C14.4525 20.4804 13.4656 22.3978 12.0799 24.0194C10.6943 25.641 8.9475 26.9226 6.97684 27.7637C6.47126 27.9838 6.47126 28.6842 6.97684 28.8943C12.3866 31.1454 18.9086 29.9348 23.0847 25.2624C27.635 20.1698 27.7867 12.3457 23.4083 7.10303C19.8591 2.85084 14.4595 1.26002 9.52499 2.30056C8.99918 2.41061 8.87784 3.11097 9.32275 3.41113C10.6272 4.29158 11.8102 5.40215 12.8012 6.79287C14.1879 8.74992 15.0494 11.0235 15.3048 13.4003C15.3197 13.587 15.3277 13.7825 15.3291 13.9866C15.3372 14.769 14.7406 15.2702 14.2552 15.6775C14.1339 15.7763 14.0165 15.8798 13.9033 15.9876C13.7177 16.1751 13.6146 16.4276 13.6165 16.69C13.6184 16.9525 13.7251 17.2035 13.9135 17.3883L14.963 18.4179Z" fill="#FCD53F"/>
<path d="M14.5907 5.08191C15.2718 5.08218 15.9386 4.88796 16.5109 4.52254C17.0833 4.15713 17.5369 3.63605 17.8173 3.02185C15.6854 2.16506 13.3746 1.83538 11.085 2.06136C11.2022 2.89892 11.6217 3.66624 12.266 4.22162C12.9104 4.777 13.7361 5.08293 14.5907 5.08291M25.756 20.787C26.5649 18.5539 26.7924 16.1456 26.4304 13.8144C25.9662 13.7674 25.4971 13.8117 25.0502 13.9448C24.6033 14.0779 24.1874 14.2972 23.8265 14.5899C23.4656 14.8827 23.1667 15.2432 22.9472 15.6507C22.7276 16.0582 22.5917 16.5047 22.5472 16.9644C22.5028 17.424 22.5506 17.8879 22.6881 18.3292C22.8255 18.7705 23.0498 19.1806 23.348 19.5358C23.6462 19.891 24.0125 20.1843 24.4258 20.3989C24.8391 20.6134 25.2911 20.746 25.756 20.787ZM15.0265 29.0843C15.7077 29.0843 16.3609 28.8165 16.8426 28.3399C17.3243 27.8634 17.5949 27.217 17.5949 26.543C17.5949 25.869 17.3243 25.2226 16.8426 24.746C16.3609 24.2694 15.7077 24.0017 15.0265 24.0017C14.3453 24.0017 13.692 24.2694 13.2104 24.746C12.7287 25.2226 12.4581 25.869 12.4581 26.543C12.4581 27.217 12.7287 27.8634 13.2104 28.3399C13.692 28.8165 14.3453 29.0843 15.0265 29.0843ZM20.7093 6.57268C20.7093 6.98929 20.542 7.38883 20.2443 7.68341C19.9466 7.97799 19.5428 8.14349 19.1217 8.14349C18.7007 8.14349 18.2969 7.97799 17.9992 7.68341C17.7014 7.38883 17.5342 6.98929 17.5342 6.57268C17.5342 6.15608 17.7014 5.75654 17.9992 5.46195C18.2969 5.16737 18.7007 5.00187 19.1217 5.00187C19.5428 5.00187 19.9466 5.16737 20.2443 5.46195C20.542 5.75654 20.7093 6.15608 20.7093 6.57268Z" fill="#F9C23C"/>
<path d="M20.3959 8.53151C20.3959 8.39883 20.4492 8.27159 20.544 8.17777C20.6388 8.08396 20.7674 8.03125 20.9015 8.03125C21.8348 8.03125 22.7298 8.39808 23.3897 9.05104C24.0496 9.70401 24.4204 10.5896 24.4204 11.513C24.4204 11.6457 24.3671 11.773 24.2723 11.8668C24.1775 11.9606 24.0489 12.0133 23.9148 12.0133C23.7807 12.0133 23.6521 11.9606 23.5573 11.8668C23.4625 11.773 23.4092 11.6457 23.4092 11.513C23.4092 11.1872 23.3443 10.8645 23.2183 10.5635C23.0923 10.2625 22.9076 9.98892 22.6747 9.75851C22.4418 9.52811 22.1654 9.34534 21.8611 9.22064C21.5569 9.09595 21.2308 9.03177 20.9015 9.03177C20.7674 9.03177 20.6388 8.97906 20.544 8.88524C20.4492 8.79143 20.3959 8.66418 20.3959 8.53151ZM18.6789 18.0434C18.7776 18.0569 18.8726 18.0895 18.9585 18.1394C19.0445 18.1893 19.1196 18.2554 19.1797 18.334C19.2398 18.4126 19.2837 18.5021 19.3088 18.5975C19.3339 18.6929 19.3398 18.7922 19.3261 18.8898C19.2412 19.4923 18.9395 20.0442 18.4764 20.4443C18.0134 20.8444 17.42 21.0659 16.8053 21.068C16.6041 21.068 16.4112 20.9889 16.269 20.8482C16.1268 20.7075 16.0469 20.5166 16.0469 20.3176C16.0469 20.1186 16.1268 19.9277 16.269 19.787C16.4112 19.6463 16.6041 19.5672 16.8053 19.5672C17.3129 19.5672 17.7537 19.187 17.8235 18.6847C17.8372 18.5871 17.8701 18.4931 17.9205 18.4081C17.9709 18.3231 18.0377 18.2487 18.1172 18.1892C18.1966 18.1298 18.2871 18.0864 18.3835 18.0615C18.4799 18.0367 18.5803 18.0299 18.6789 18.0434ZM19.9702 11.0038C19.3582 11.0043 18.7619 11.1956 18.266 11.5505C17.7701 11.9054 17.3998 12.4058 17.2077 12.9808C17.1766 13.0744 17.1644 13.1732 17.1718 13.2715C17.1792 13.3697 17.2062 13.4656 17.251 13.5536C17.2959 13.6416 17.3579 13.7199 17.4334 13.7842C17.5089 13.8485 17.5964 13.8975 17.691 13.9283C17.7856 13.9591 17.8855 13.9712 17.9848 13.9638C18.0841 13.9565 18.181 13.9298 18.2699 13.8854C18.3588 13.841 18.4381 13.7797 18.503 13.705C18.568 13.6303 18.6175 13.5437 18.6486 13.45C18.8316 12.8998 19.3564 12.5046 19.9702 12.5046C20.2491 12.5028 20.5221 12.5843 20.7534 12.7386C20.9847 12.8928 21.1635 13.1125 21.2665 13.369C21.3015 13.4626 21.355 13.5483 21.4239 13.6212C21.4928 13.6941 21.5757 13.7527 21.6677 13.7935C21.7598 13.8343 21.8591 13.8565 21.9599 13.8589C22.0607 13.8612 22.161 13.8436 22.2549 13.8072C22.3488 13.7707 22.4344 13.7161 22.5067 13.6465C22.5789 13.5769 22.6365 13.4937 22.6759 13.4019C22.7153 13.31 22.7358 13.2113 22.7362 13.1115C22.7366 13.0117 22.7168 12.9129 22.6781 12.8207C22.4638 12.2835 22.0907 11.8228 21.6076 11.4987C21.1245 11.1745 20.5539 11.0021 19.9702 11.0038Z" fill="#321B41"/>
</svg>
