<svg width="24" height="24" viewBox="0 0 24 24" fill="none" xmlns="http://www.w3.org/2000/svg">
<path d="M19.5804 3.00075H4.42202C4.04507 3.00075 3.68357 3.15049 3.41703 3.41703C3.15049 3.68357 3.00075 4.04507 3.00075 4.42202V8.11506L3 8.15481C3 8.53175 3.14974 8.89325 3.41628 9.15979C3.68282 9.42633 4.04432 9.57607 4.42127 9.57607C4.79821 9.57607 5.15971 9.42633 5.42625 9.15979C5.69279 8.89325 5.84253 8.53175 5.84253 8.15481L5.84178 8.11281V8.11506V5.84253H10.5781V18.1592H8.38431C8.01535 18.171 7.66544 18.3258 7.40854 18.5909C7.15165 18.856 7.00791 19.2106 7.00772 19.5797C7.00752 19.9489 7.15089 20.3036 7.4075 20.569C7.66411 20.8343 8.01386 20.9895 8.38281 21.0017H15.6166C15.9856 20.9899 16.3355 20.8351 16.5924 20.57C16.8493 20.3049 16.993 19.9503 16.9932 19.5812C16.9934 19.212 16.8501 18.8573 16.5935 18.5919C16.3368 18.3265 15.9871 18.1713 15.6181 18.1592H13.4214V5.84253H18.1577V8.11506C18.1695 8.48401 18.3243 8.83393 18.5894 9.09082C18.8545 9.34772 19.2091 9.49146 19.5782 9.49165C19.9474 9.49184 20.3021 9.34848 20.5675 9.09187C20.8328 8.83525 20.988 8.4855 21.0002 8.11656V4.42127C21.0002 4.04445 20.8506 3.68306 20.5842 3.41654C20.3178 3.15003 19.9565 3.0002 19.5797 3L19.5804 3.00075Z" fill="white"/>
</svg>
