<svg width="14" height="14" viewBox="0 0 14 14" fill="none" xmlns="http://www.w3.org/2000/svg">
<path d="M4.9673 13.9987C4.5323 13.9987 4.12031 13.7957 3.8563 13.4457L0.283305 8.72469C0.172583 8.579 0.09172 8.41287 0.0453553 8.23585C-0.00100946 8.05882 -0.0119631 7.87439 0.0131225 7.69312C0.0382081 7.51185 0.0988392 7.33732 0.191537 7.17955C0.284235 7.02177 0.407176 6.88384 0.553305 6.77369C0.699063 6.66266 0.865335 6.58154 1.04256 6.535C1.21978 6.48847 1.40445 6.47742 1.58596 6.50252C1.76746 6.52761 1.94221 6.58834 2.10016 6.68122C2.25811 6.77409 2.39614 6.89728 2.5063 7.04369L4.8573 10.1477L10.7683 0.655694C10.9643 0.342294 11.2767 0.119441 11.6368 0.0360176C11.9969 -0.0474054 12.3754 0.0154132 12.6893 0.210694C13.3423 0.616694 13.5433 1.47669 13.1353 2.13069L6.1513 13.3407C6.03208 13.5329 5.86775 13.6931 5.67258 13.8075C5.4774 13.9218 5.25728 13.9867 5.0313 13.9967L4.9673 13.9987Z" fill="white"/>
</svg>
