<svg width="24" height="24" viewBox="0 0 24 24" fill="none" xmlns="http://www.w3.org/2000/svg">
<path d="M15.8653 4.26838H18.7646C19.2773 4.26838 19.7689 4.47202 20.1314 4.8345C20.4938 5.19698 20.6975 5.68861 20.6975 6.20124V7.16767M15.8653 19.7312H18.7646C19.2773 19.7312 19.7689 19.5276 20.1314 19.1651C20.4938 18.8026 20.6975 18.311 20.6975 17.7984V16.832M15.8663 11.9998H20.6984M18.7656 13.9327L20.6984 11.9998L18.7656 10.067M4.67892 19.1784L10.4775 20.918C10.7662 21.0047 11.0711 21.0226 11.3679 20.9704C11.6647 20.9182 11.9452 20.7974 12.187 20.6175C12.4288 20.4375 12.6252 20.2036 12.7604 19.9343C12.8957 19.6649 12.9661 19.3677 12.9661 19.0663V4.93328C12.9661 4.6319 12.8957 4.33468 12.7604 4.06536C12.6252 3.79604 12.4288 3.56208 12.187 3.38217C11.9452 3.20226 11.6647 3.08139 11.3679 3.0292C11.0711 2.97701 10.7662 2.99496 10.4775 3.0816L4.67892 4.82118C4.28077 4.94069 3.93176 5.18538 3.68368 5.51894C3.4356 5.8525 3.30167 6.25716 3.30176 6.67286V17.3268C3.30167 17.7425 3.4356 18.1471 3.68368 18.4807C3.93176 18.8142 4.28077 19.0589 4.67892 19.1784Z" stroke="white" stroke-width="1.8" stroke-linecap="round" stroke-linejoin="round"/>
</svg>
