<svg width="24" height="24" viewBox="0 0 24 24" fill="none" xmlns="http://www.w3.org/2000/svg">
<g clip-path="url(#clip0_168_5845)">
<path d="M14.1557 3.42941L12.4414 2.57227L10.7271 3.42941V6.00084H14.1557V3.42941ZM7.83857 7.87798L5.73857 9.97798C5.31 10.4066 4.62429 10.4066 4.20429 9.97798L3.32143 9.09512C2.89286 8.66655 2.89286 7.98084 3.32143 7.56084L5.42143 5.46084C5.85 5.03227 6.53571 5.03227 6.95571 5.46084L7.84714 6.35227C8.26714 6.76369 8.26714 7.45798 7.83857 7.87798ZM19.1357 9.97798L17.0357 7.87798C16.6071 7.45798 16.6071 6.76369 17.0357 6.34369L17.9271 5.45227C18.3471 5.02369 19.0329 5.02369 19.4614 5.45227L21.5614 7.55227C21.99 7.97227 21.99 8.65798 21.5614 9.08655L20.67 9.97798C20.25 10.4066 19.5643 10.4066 19.1357 9.97798Z" fill="#D3D3D3"/>
<path d="M10.0937 3.42857H14.7822C15.3822 3.42857 15.8708 2.94 15.8622 2.34V1.08857C15.8622 0.488571 15.3737 0 14.7737 0H10.0937C9.49367 0 9.01367 0.488571 9.0051 1.08857V2.34C9.0051 2.94 9.49367 3.42857 10.0937 3.42857ZM21.8708 14.5714C21.8708 19.7786 17.6494 24 12.4422 24C7.2351 24 3.01367 19.7786 3.01367 14.5714C3.01367 9.36429 7.2351 5.14286 12.4422 5.14286C17.6494 5.14286 21.8708 9.36429 21.8708 14.5714Z" fill="#999999"/>
<path d="M12.4428 22.286C13.4559 22.286 14.459 22.0865 15.3949 21.6988C16.3309 21.3111 17.1813 20.7429 17.8976 20.0265C18.614 19.3102 19.1822 18.4598 19.5699 17.5238C19.9576 16.5879 20.1571 15.5848 20.1571 14.5717C20.1571 13.5587 19.9576 12.5555 19.5699 11.6196C19.1822 10.6836 18.614 9.83322 17.8976 9.11688C17.1813 8.40055 16.3309 7.83232 15.3949 7.44464C14.459 7.05696 13.4559 6.85742 12.4428 6.85742C10.3968 6.85742 8.43469 7.67017 6.98798 9.11688C5.54127 10.5636 4.72852 12.5258 4.72852 14.5717C4.72852 16.6177 5.54127 18.5798 6.98798 20.0265C8.43469 21.4732 10.3968 22.286 12.4428 22.286Z" fill="white"/>
<path d="M15.4671 10.3276L16.0757 9.71905C16.155 9.6397 16.2492 9.57675 16.3529 9.5338C16.4566 9.49085 16.5677 9.46875 16.68 9.46875C16.7922 9.46875 16.9033 9.49085 17.007 9.5338C17.1107 9.57675 17.2049 9.6397 17.2842 9.71905C17.3636 9.79841 17.4265 9.89262 17.4695 9.9963C17.5124 10.1 17.5345 10.2111 17.5345 10.3233C17.5345 10.4356 17.5124 10.5467 17.4695 10.6504C17.4265 10.7541 17.3636 10.8483 17.2842 10.9276L16.6757 11.5362C16.5963 11.6156 16.5021 11.6785 16.3984 11.7214C16.2947 11.7644 16.1836 11.7865 16.0714 11.7865C15.9592 11.7865 15.848 11.7644 15.7443 11.7214C15.6407 11.6785 15.5465 11.6156 15.4671 11.5362C15.3877 11.4568 15.3248 11.3626 15.2818 11.2589C15.2389 11.1553 15.2168 11.0441 15.2168 10.9319C15.2168 10.8197 15.2389 10.7086 15.2818 10.6049C15.3248 10.5012 15.3877 10.407 15.4671 10.3276Z" fill="#9B9B9B"/>
<path d="M11.585 9.42913V8.57199C11.585 8.10056 11.9707 7.71484 12.4421 7.71484C12.9135 7.71484 13.2992 8.10056 13.2992 8.57199V9.42913C13.2992 9.90056 12.9135 10.2863 12.4421 10.2863C11.9621 10.2863 11.585 9.90056 11.585 9.42913ZM11.585 20.572V19.7148C11.585 19.2434 11.9707 18.8577 12.4421 18.8577C12.9135 18.8577 13.2992 19.2434 13.2992 19.7148V20.572C13.2992 21.0434 12.9135 21.4291 12.4421 21.4291C11.9621 21.4291 11.585 21.0434 11.585 20.572ZM18.4421 13.7148H17.585C17.105 13.7148 16.7278 14.1006 16.7278 14.572C16.7278 15.0434 17.1135 15.4291 17.585 15.4291H18.4421C18.9135 15.4291 19.2992 15.0434 19.2992 14.572C19.2992 14.1006 18.9135 13.7148 18.4421 13.7148ZM6.4421 13.7148H7.29925C7.77068 13.7148 8.15639 14.1006 8.15639 14.572C8.15639 15.0434 7.77068 15.4291 7.29925 15.4291H6.4421C5.97068 15.4291 5.58496 15.0434 5.58496 14.572C5.58496 14.1006 5.9621 13.7148 6.4421 13.7148ZM17.2935 18.2148L16.685 17.6063C16.5247 17.446 16.3073 17.356 16.0807 17.356C15.854 17.356 15.6367 17.446 15.4764 17.6063C15.3161 17.7665 15.2261 17.9839 15.2261 18.2106C15.2261 18.4372 15.3161 18.6546 15.4764 18.8148L16.085 19.4234C16.2452 19.5837 16.4626 19.6737 16.6892 19.6737C16.9159 19.6737 17.1333 19.5837 17.2935 19.4234C17.4538 19.2631 17.5438 19.0458 17.5438 18.8191C17.5438 18.5925 17.4538 18.3751 17.2935 18.2148ZM8.79925 9.72913L9.40782 10.3377C9.48717 10.4171 9.55012 10.5113 9.59307 10.6149C9.63602 10.7186 9.65812 10.8298 9.65812 10.942C9.65812 11.0542 9.63602 11.1653 9.59307 11.269C9.55012 11.3727 9.48717 11.4669 9.40782 11.5463C9.32846 11.6256 9.23425 11.6886 9.13057 11.7315C9.02689 11.7745 8.91576 11.7966 8.80353 11.7966C8.69131 11.7966 8.58018 11.7745 8.47649 11.7315C8.37281 11.6886 8.2786 11.6256 8.19925 11.5463L7.59067 10.9377C7.51121 10.8584 7.44817 10.7642 7.40516 10.6605C7.36215 10.5568 7.34001 10.4457 7.34001 10.3334C7.34001 10.2212 7.36215 10.11 7.40516 10.0063C7.44817 9.90262 7.51121 9.80843 7.59067 9.72913C7.92496 9.38627 8.46496 9.38627 8.79925 9.72913ZM8.19925 17.5977L7.59067 18.2063C7.51132 18.2856 7.44837 18.3798 7.40542 18.4835C7.36248 18.5872 7.34037 18.6983 7.34037 18.8106C7.34037 18.9228 7.36248 19.0339 7.40542 19.1376C7.44837 19.2413 7.51132 19.3355 7.59067 19.4148C7.67003 19.4942 7.76424 19.5571 7.86792 19.6001C7.97161 19.643 8.08273 19.6651 8.19496 19.6651C8.30719 19.6651 8.41831 19.643 8.522 19.6001C8.62568 19.5571 8.71989 19.4942 8.79925 19.4148L9.40782 18.8063C9.48717 18.7269 9.55012 18.6327 9.59307 18.529C9.63602 18.4253 9.65812 18.3142 9.65812 18.202C9.65812 18.0898 9.63602 17.9786 9.59307 17.8749C9.55012 17.7713 9.48717 17.6771 9.40782 17.5977C9.32846 17.5183 9.23425 17.4554 9.13057 17.4124C9.02689 17.3695 8.91576 17.3474 8.80353 17.3474C8.69131 17.3474 8.58018 17.3695 8.47649 17.4124C8.37281 17.4554 8.2786 17.5183 8.19925 17.5977Z" fill="#D3D3D3"/>
<path d="M11.8337 15.1822C11.7542 15.1029 11.6912 15.0087 11.6482 14.905C11.6051 14.8013 11.583 14.6902 11.583 14.5779C11.583 14.4657 11.6051 14.3545 11.6482 14.2508C11.6912 14.1471 11.7542 14.0529 11.8337 13.9736L16.0765 9.73077C16.1559 9.65142 16.2501 9.58847 16.3538 9.54552C16.4575 9.50257 16.5686 9.48047 16.6808 9.48047C16.793 9.48047 16.9042 9.50257 17.0079 9.54552C17.1115 9.58847 17.2057 9.65142 17.2851 9.73077C17.3645 9.81013 17.4274 9.90434 17.4704 10.008C17.5133 10.1117 17.5354 10.2228 17.5354 10.3351C17.5354 10.4473 17.5133 10.5584 17.4704 10.6621C17.4274 10.7658 17.3645 10.86 17.2851 10.9393L13.0422 15.1822C12.9629 15.2617 12.8688 15.3247 12.7651 15.3677C12.6614 15.4107 12.5502 15.4329 12.438 15.4329C12.3257 15.4329 12.2145 15.4107 12.1109 15.3677C12.0072 15.3247 11.913 15.2617 11.8337 15.1822Z" fill="#F8312F"/>
</g>
<defs>
<clipPath id="clip0_168_5845">
<rect width="24" height="24" fill="white"/>
</clipPath>
</defs>
</svg>
