<svg width="24" height="24" viewBox="0 0 24 24" fill="none" xmlns="http://www.w3.org/2000/svg">
<path fill-rule="evenodd" clip-rule="evenodd" d="M12.0002 22.7992C13.4185 22.7992 14.8229 22.5199 16.1332 21.9771C17.4435 21.4344 18.6341 20.6388 19.6369 19.636C20.6398 18.6331 21.4353 17.4425 21.9781 16.1322C22.5208 14.8219 22.8002 13.4175 22.8002 11.9992C22.8002 10.5809 22.5208 9.17655 21.9781 7.86624C21.4353 6.55592 20.6398 5.36534 19.6369 4.36247C18.6341 3.35959 17.4435 2.56407 16.1332 2.02132C14.8229 1.47857 13.4185 1.19922 12.0002 1.19922C9.13586 1.19922 6.38883 2.33707 4.36344 4.36247C2.33805 6.38786 1.2002 9.13488 1.2002 11.9992C1.2002 14.8636 2.33805 17.6106 4.36344 19.636C6.38883 21.6614 9.13586 22.7992 12.0002 22.7992ZM10.5398 7.18722L17.3126 10.9504C17.4996 11.0544 17.6554 11.2064 17.7638 11.3908C17.8723 11.5752 17.9295 11.7853 17.9295 11.9992C17.9295 12.2132 17.8723 12.4232 17.7638 12.6076C17.6554 12.792 17.4996 12.9441 17.3126 13.048L10.5398 16.8112C10.3205 16.9331 10.0732 16.9956 9.82227 16.9925C9.57139 16.9894 9.32568 16.9207 9.10948 16.7934C8.89328 16.6661 8.7141 16.4845 8.58969 16.2666C8.46528 16.0487 8.39996 15.8021 8.4002 15.5512V8.44722C8.39996 8.19632 8.46528 7.94971 8.58969 7.73182C8.7141 7.51394 8.89328 7.33234 9.10948 7.20503C9.32568 7.07771 9.57139 7.00909 9.82227 7.00596C10.0732 7.00284 10.3205 7.06532 10.5398 7.18722Z" fill="white"/>
</svg>
