<svg width="24" height="24" viewBox="0 0 24 24" fill="none" xmlns="http://www.w3.org/2000/svg">
<path d="M15.5 2V5M6.5 2V5M11 2V5M19 12V10.5C19 7.2 19 5.55 17.975 4.525C16.95 3.5 15.3 3.5 12 3.5H10C6.7 3.5 5.05 3.5 4.025 4.525C3 5.55 3 7.2 3 10.5V15C3 18.3 3 19.95 4.025 20.975C5.05 22 6.7 22 10 22H11M7 15H11M7 11H15M15.737 21.653L14 22L14.347 20.263C14.417 19.911 14.591 19.587 14.846 19.333L18.911 15.267C18.9955 15.1823 19.0959 15.1152 19.2064 15.0693C19.3169 15.0235 19.4354 14.9999 19.555 14.9999C19.6746 14.9999 19.7931 15.0235 19.9036 15.0693C20.0141 15.1152 20.1145 15.1823 20.199 15.267L20.733 15.801C20.8177 15.8855 20.8848 15.9859 20.9307 16.0964C20.9765 16.2069 21.0001 16.3254 21.0001 16.445C21.0001 16.5646 20.9765 16.6831 20.9307 16.7936C20.8848 16.9041 20.8177 17.0045 20.733 17.089L16.668 21.154C16.4146 21.4097 16.0903 21.5835 15.737 21.653Z" stroke="white" stroke-width="2" stroke-linecap="round" stroke-linejoin="round"/>
</svg>
