<svg width="24" height="24" viewBox="0 0 24 24" fill="none" xmlns="http://www.w3.org/2000/svg">
<path d="M6.99984 17.9991V11.9987C6.99984 10.6725 7.52666 9.40068 8.4644 8.46293C9.40214 7.52519 10.674 6.99837 12.0002 6.99837C13.3263 6.99837 14.5982 7.52519 15.5359 8.46293C16.4737 9.40068 17.0005 10.6725 17.0005 11.9987V17.9991M6.99984 17.9991H17.0005M6.99984 17.9991C6.46937 17.9991 5.96063 18.2098 5.58553 18.5849C5.21043 18.96 4.99971 19.4688 4.99971 19.9992V20.9993C4.99971 21.2645 5.10507 21.5189 5.29262 21.7064C5.48017 21.894 5.73454 21.9993 5.99977 21.9993H18.0006C18.2658 21.9993 18.5202 21.894 18.7077 21.7064C18.8953 21.5189 19.0006 21.2645 19.0006 20.9993V19.9992C19.0006 19.4688 18.7899 18.96 18.4148 18.5849C18.0397 18.2098 17.531 17.9991 17.0005 17.9991M21.0007 11.9987H22.0008M18.5006 4.49821L18.0006 4.99824M1.99951 11.9987H2.99958M12.0002 1.99805V2.99811M4.9287 4.92724L5.63575 5.63428M12.0002 11.9987V17.9991" stroke="white" stroke-width="1.8" stroke-linecap="round" stroke-linejoin="round"/>
</svg>
