<svg width="24" height="24" viewBox="0 0 24 24" fill="none" xmlns="http://www.w3.org/2000/svg">
<path d="M12.8549 4.41193L13.6987 4.5545L14.5219 4.7918L15.3129 5.11991L16.0618 5.53395L16.7601 6.02905L17.3987 6.60032L17.97 7.23799L18.4651 7.93718L18.8791 8.68617L19.2072 9.47715L19.4445 10.3004L19.5871 11.1441L19.6359 11.9995L19.5871 12.8549L19.4445 13.6987L19.2072 14.5219L18.8791 15.3129L18.4651 16.0618L17.97 16.7601L17.3987 17.3987L16.761 17.97L16.0628 18.4651L15.3129 18.8791L14.5219 19.2072L13.6987 19.4445L12.8549 19.5871L11.9995 19.6359L11.1441 19.5871L10.3004 19.4445L9.47715 19.2072L8.68617 18.8791L7.93718 18.4651L7.23896 17.97L6.60032 17.3987L6.02905 16.761L5.53395 16.0618L5.11991 15.3129L4.7918 14.5219L4.5545 13.6987L4.41193 12.8549L4.3631 11.9995L4.41193 11.1441L4.5545 10.3004L4.7918 9.47715L5.11991 8.68617L5.53395 7.93718L6.02905 7.23896L6.60032 6.60032L7.23896 6.02905L7.93718 5.53395L8.68617 5.11991L9.47715 4.7918L10.3004 4.5545L11.1441 4.41193L11.9995 4.3631L12.8549 4.41193ZM11.5113 7.66375L11.0288 7.74578L10.5582 7.88054L10.106 8.06803L9.67832 8.30435L9.27892 8.58852L8.9137 8.9137L8.58754 9.27892L8.30435 9.67832L8.06803 10.106L7.88054 10.5582L7.7448 11.0288L7.66375 11.5113L7.63641 11.9995L7.66375 12.4878L7.7448 12.9702L7.88054 13.4409L8.06803 13.893L8.30435 14.3207L8.58754 14.7201L8.9137 15.0853L9.27892 15.4105L9.67832 15.6947L10.106 15.931L10.5582 16.1185L11.0279 16.2532L11.5113 16.3353L11.9995 16.3626L12.4878 16.3353L12.9702 16.2532L13.4409 16.1185L13.893 15.931L14.3207 15.6947L14.7201 15.4105L15.0843 15.0853L15.4105 14.7201L15.6937 14.3207L15.931 13.893L16.1175 13.4409L16.2532 12.9702L16.3353 12.4878L16.3626 11.9995L16.3353 11.5113L16.2532 11.0288L16.1175 10.5582L15.931 10.106L15.6937 9.67832L15.4105 9.27892L15.0843 8.9137L14.7201 8.58852L14.3207 8.30435L13.892 8.06803L13.4409 7.88054L12.9702 7.74578L12.4878 7.66375L11.9995 7.63641L11.5113 7.66375Z" fill="white"/>
</svg>
