<svg width="32" height="32" viewBox="0 0 32 32" fill="none" xmlns="http://www.w3.org/2000/svg">
<path d="M13.2165 3.93518C14.2837 1.62413 17.5752 1.57475 18.7222 3.84629C19.1511 4.69565 20.2084 5.02157 21.0462 4.55738L21.5648 4.27097C23.5996 3.12533 26.0432 4.83392 25.6542 7.10546L25.5545 7.68816C25.3949 8.62641 26.0632 9.50539 27.0207 9.61403L27.6092 9.68317C29.9232 9.94983 30.8907 12.7448 29.225 14.3546L28.7961 14.7694C28.1079 15.4312 28.1278 16.5373 28.836 17.1793L29.2749 17.5743C30.9904 19.1348 30.1127 21.9594 27.8087 22.2952L27.2202 22.384C26.2726 22.5223 25.6343 23.4211 25.8238 24.3593L25.9435 24.942C26.4023 27.2037 24.0185 28.9814 21.9538 27.9049L21.4252 27.6283C20.5774 27.1839 19.5201 27.5395 19.1212 28.4086C18.054 30.7196 14.7625 30.769 13.6155 28.4975C13.5141 28.2959 13.3725 28.1168 13.1992 27.971C13.0259 27.8252 12.8245 27.7158 12.6072 27.6493C12.3899 27.5828 12.1613 27.5607 11.9352 27.5842C11.709 27.6078 11.49 27.6766 11.2915 27.7864L10.7728 28.0728C8.74809 29.2085 6.30442 27.5 6.69341 25.2284L6.79316 24.6457C6.95274 23.7075 6.28447 22.8285 5.32696 22.7198L4.73848 22.6507C2.42449 22.384 1.45699 19.5891 3.12268 17.9792L3.55156 17.5644C4.23978 16.9027 4.21983 15.7966 3.51167 15.1546L3.0728 14.7596C1.35725 13.1991 2.23498 10.3745 4.539 10.0387L5.12748 9.94983C6.07502 9.81156 6.71336 8.91282 6.52385 7.97457L6.40416 7.40175C5.94535 5.14008 8.32917 3.36236 10.3938 4.43887L10.9224 4.7154C11.7702 5.14996 12.8175 4.79441 13.2165 3.93518Z" fill="#FF822D"/>
<path d="M16.1288 27.0247C22.1891 27.0247 27.1003 22.1616 27.1003 16.1608C27.1003 10.16 22.1891 5.29688 16.1288 5.29688C10.0685 5.29688 5.15723 10.1609 5.15723 16.1608C5.15723 22.1606 10.0695 27.0247 16.1288 27.0247Z" fill="#FCD53F"/>
<path d="M10.8128 9.29231C10.1568 9.29231 9.52759 9.55037 9.06371 10.0097C8.59982 10.469 8.33921 11.092 8.33921 11.7416C8.33921 11.8726 8.28667 11.9982 8.19314 12.0908C8.09962 12.1834 7.97277 12.2354 7.8405 12.2354C7.70824 12.2354 7.58139 12.1834 7.48786 12.0908C7.39434 11.9982 7.3418 11.8726 7.3418 11.7416C7.3418 10.8301 7.70749 9.9559 8.35843 9.31134C9.00937 8.66679 9.89223 8.30469 10.8128 8.30469C10.9451 8.30469 11.0719 8.35671 11.1654 8.44932C11.259 8.54193 11.3115 8.66753 11.3115 8.7985C11.3115 8.92947 11.259 9.05507 11.1654 9.14768C11.0719 9.24029 10.9451 9.29231 10.8128 9.29231ZM11.0522 17.7266C11.1924 17.5879 11.3826 17.51 11.5808 17.51C11.779 17.51 11.9692 17.5879 12.1094 17.7266C12.6208 18.2334 13.2279 18.6354 13.8962 18.9097C14.5645 19.184 15.2809 19.3252 16.0043 19.3252C16.7278 19.3252 17.4441 19.184 18.1124 18.9097C18.7807 18.6354 19.3879 18.2334 19.8992 17.7266C20.041 17.5958 20.2286 17.5246 20.4224 17.528C20.6162 17.5313 20.8011 17.6091 20.9382 17.7448C21.0752 17.8805 21.1537 18.0636 21.1571 18.2555C21.1606 18.4474 21.0886 18.6331 20.9565 18.7735C20.3063 19.4177 19.5343 19.9286 18.6845 20.2772C17.8348 20.6259 16.9241 20.8053 16.0043 20.8053C15.0846 20.8053 14.1738 20.6259 13.3241 20.2772C12.4744 19.9286 11.7024 19.4177 11.0522 18.7735C10.9121 18.6346 10.8334 18.4464 10.8334 18.2501C10.8334 18.0538 10.9121 17.8655 11.0522 17.7266ZM21.1659 8.30469C21.0337 8.30469 20.9068 8.35671 20.8133 8.44932C20.7198 8.54193 20.6672 8.66753 20.6672 8.7985C20.6672 8.92947 20.7198 9.05507 20.8133 9.14768C20.9068 9.24029 21.0337 9.29231 21.1659 9.29231C21.822 9.29231 22.4511 9.55037 22.915 10.0097C23.3789 10.469 23.6395 11.092 23.6395 11.7416C23.6395 11.8726 23.6921 11.9982 23.7856 12.0908C23.8791 12.1834 24.006 12.2354 24.1382 12.2354C24.2705 12.2354 24.3974 12.1834 24.4909 12.0908C24.5844 11.9982 24.6369 11.8726 24.6369 11.7416C24.6369 10.8301 24.2713 9.9559 23.6203 9.31134C22.9694 8.66679 22.0865 8.30469 21.1659 8.30469ZM11.7304 12.7293C11.4553 12.7275 11.1861 12.808 10.9579 12.9603C10.7298 13.1125 10.5533 13.3294 10.4517 13.5826C10.4172 13.675 10.3644 13.7596 10.2965 13.8315C10.2285 13.9035 10.1468 13.9613 10.056 14.0016C9.96521 14.0418 9.86722 14.0638 9.76777 14.0661C9.66831 14.0684 9.56939 14.0511 9.47679 14.0151C9.38418 13.9791 9.29976 13.9252 9.22846 13.8565C9.15716 13.7878 9.10041 13.7057 9.06154 13.615C9.02267 13.5244 9.00245 13.4269 9.00208 13.3284C9.0017 13.2299 9.02117 13.1323 9.05934 13.0413C9.27078 12.5111 9.63878 12.0563 10.1153 11.7363C10.5918 11.4164 11.1547 11.2461 11.7304 11.2478C13.0001 11.2478 14.0783 12.0636 14.4563 13.1994C14.5184 13.386 14.503 13.5894 14.4136 13.7648C14.3242 13.9402 14.1681 14.0732 13.9796 14.1346C13.7911 14.1961 13.5857 14.1808 13.4086 14.0923C13.2314 14.0038 13.0971 13.8492 13.035 13.6626C12.8545 13.1194 12.3368 12.7293 11.7304 12.7293ZM19.0494 13.5826C19.151 13.3294 19.3275 13.1125 19.5556 12.9603C19.7838 12.808 20.053 12.7275 20.3281 12.7293C20.9345 12.7293 21.4522 13.1184 21.6327 13.6626C21.6949 13.8492 21.8294 14.0037 22.0066 14.0922C22.1839 14.1806 22.3893 14.1957 22.5778 14.1342C22.7663 14.0726 22.9223 13.9394 23.0116 13.7639C23.101 13.5884 23.1162 13.385 23.054 13.1984C22.8643 12.6308 22.4989 12.1369 22.0095 11.7868C21.5202 11.4366 20.9319 11.248 20.3281 11.2478C19.7524 11.2461 19.1895 11.4164 18.713 11.7363C18.2365 12.0563 17.8685 12.5111 17.657 13.0413C17.6189 13.1323 17.5994 13.2299 17.5998 13.3284C17.6002 13.4269 17.6204 13.5244 17.6592 13.615C17.6981 13.7057 17.7549 13.7878 17.8262 13.8565C17.8975 13.9252 17.9819 13.9791 18.0745 14.0151C18.1671 14.0511 18.266 14.0684 18.3655 14.0661C18.4649 14.0638 18.5629 14.0418 18.6537 14.0016C18.7445 13.9613 18.8262 13.9035 18.8942 13.8315C18.9621 13.7596 19.0149 13.675 19.0494 13.5826Z" fill="#321B41"/>
</svg>
