<svg width="32" height="32" viewBox="0 0 32 32" fill="none" xmlns="http://www.w3.org/2000/svg">
<path d="M26.0269 9.69548V7.31445C21.0141 7.31445 18.1682 10.5744 15.8221 13.9083C13.476 10.5745 10.63 7.31445 5.61719 7.31445V9.69548C9.8103 9.69548 12.0995 12.6768 14.3813 16.0087C12.0995 19.3407 9.8103 22.322 5.61719 22.322V24.703C10.63 24.703 13.476 21.443 15.8221 18.1091C18.1682 21.443 21.0141 24.703 26.0269 24.703V22.322C21.8338 22.322 19.5446 19.3406 17.2629 16.0087C19.5446 12.6768 21.8338 9.69548 26.0269 9.69548Z" fill="#002775"/>
<path d="M27.666 16.8825V15.1348H21.9354V16.8825H27.666Z" fill="#F7417A"/>
<path d="M18.6876 5.99142H16.6961V4H14.9485V5.99142H12.957V7.73911H14.9485V9.73054H16.6961V7.73911H18.6876V5.99142Z" fill="#4BC8DC"/>
<path d="M18.5269 25.84V24.2754H13.1177V25.84H18.5269Z" fill="#64C947"/>
<path d="M16.6045 28.0002V26.4355H15.0399V28.0002H16.6045Z" fill="#64C947"/>
<path d="M16.6045 23.676V22.1113H15.0399V23.676H16.6045Z" fill="#64C947"/>
<path d="M9.62189 14.5991L8.3861 13.3633L6.97796 14.7715L5.56978 13.3633L4.33398 14.5991L5.74216 16.0072L4.33398 17.4154L5.56978 18.6512L6.97796 17.243L8.3861 18.6512L9.62189 17.4154L8.21375 16.0072L9.62189 14.5991Z" fill="#FF9B4E"/>
</svg>
