<svg width="24" height="24" viewBox="0 0 24 24" fill="none" xmlns="http://www.w3.org/2000/svg">
<path d="M11.7213 2.07972C11.6373 2.13183 11.5696 2.20635 11.5258 2.29489L9.21682 6.97389C9.06453 7.28216 8.8396 7.54881 8.56141 7.75088C8.28321 7.95295 7.96008 8.08439 7.61982 8.13389L2.45482 8.88889C2.35653 8.90279 2.26411 8.94402 2.1881 9.00788C2.11209 9.07174 2.05554 9.15566 2.0249 9.25008C1.99426 9.34451 1.99075 9.44565 2.01479 9.54197C2.03882 9.63829 2.08942 9.72593 2.16082 9.79489L5.89682 13.4319C6.14343 13.672 6.32792 13.9686 6.43436 14.2959C6.54081 14.6233 6.56602 14.9716 6.50782 15.3109L5.62682 20.4499C5.60968 20.5476 5.6203 20.6481 5.65748 20.7401C5.69466 20.8321 5.7569 20.9118 5.83712 20.9701C5.91734 21.0285 6.01233 21.0631 6.11127 21.0701C6.21022 21.0772 6.30915 21.0563 6.39682 21.0099L11.0138 18.5819C11.3181 18.4221 11.6566 18.3386 12.0003 18.3386C12.344 18.3386 12.6825 18.4221 12.9868 18.5819L17.6048 21.0099C17.6925 21.0566 17.7916 21.0777 17.8907 21.0708C17.9898 21.0639 18.085 21.0293 18.1654 20.9709C18.2458 20.9125 18.3081 20.8327 18.3453 20.7406C18.3825 20.6485 18.3931 20.5477 18.3758 20.4499L17.4938 15.3099C17.4359 14.9708 17.4612 14.6227 17.5677 14.2955C17.6741 13.9684 17.8584 13.672 18.1048 13.4319L21.8408 9.79389C21.9116 9.72485 21.9617 9.63736 21.9854 9.54133C22.0091 9.4453 22.0054 9.34456 21.9748 9.2505C21.9443 9.15644 21.888 9.07282 21.8123 9.00909C21.7367 8.94537 21.6447 8.90408 21.5468 8.88989L16.3808 8.13389C16.0409 8.08401 15.7183 7.95239 15.4404 7.75035C15.1626 7.5483 14.938 7.28186 14.7858 6.97389L12.4758 2.29489C12.432 2.20635 12.3643 2.13183 12.2804 2.07972C12.1964 2.02761 12.0996 2 12.0008 2C11.902 2 11.8052 2.02761 11.7213 2.07972Z" stroke="#0054DF" stroke-width="2" stroke-linecap="round"/>
</svg>
